<svg width="17" height="17" viewBox="0 0 17 17" fill="none" xmlns="http://www.w3.org/2000/svg">
<g clip-path="url(#clip0)">
<path d="M12.4008 10.134L12.3944 10.1872C10.8368 9.41083 10.6739 9.30742 10.4727 9.60917C10.3331 9.81813 9.92656 10.292 9.80402 10.4323C9.68006 10.5704 9.55681 10.581 9.34643 10.4854C9.13393 10.3791 8.45181 10.156 7.64431 9.4335C7.01531 8.87037 6.59314 8.17975 6.46848 7.96725C6.26093 7.60883 6.69514 7.55783 7.09039 6.80983C7.16123 6.66108 7.1251 6.54421 7.07268 6.43867C7.01956 6.33242 6.59668 5.29117 6.4196 4.87608C6.2496 4.46242 6.07464 4.51483 5.9436 4.51483C5.5356 4.47942 5.23739 4.48508 4.9746 4.7585C3.83135 6.01508 4.11964 7.31133 5.09785 8.68975C7.02027 11.2057 8.04452 11.669 9.91735 12.3122C10.4231 12.473 10.8842 12.4503 11.249 12.3979C11.6556 12.3334 12.5006 11.8872 12.677 11.3878C12.8576 10.8884 12.8576 10.474 12.8045 10.3784C12.7521 10.2828 12.6133 10.2297 12.4008 10.134Z" fill="white"/>
<path d="M14.535 2.44286C9.08862 -2.82218 0.0750833 0.996443 0.0715417 8.42403C0.0715417 9.90869 0.460417 11.3565 1.20133 12.6351L0 16.9998L4.48729 15.8297C10.0867 18.8542 16.9972 14.838 17 8.42828C17 6.17861 16.1217 4.0614 14.5244 2.47048L14.535 2.44286ZM15.5848 8.4049C15.5805 13.8116 9.64537 17.1882 4.95125 14.4286L4.69625 14.277L2.04 14.9676L2.75187 12.3857L2.58258 12.1201C-0.338583 7.4699 3.0175 1.3924 8.551 1.3924C10.4309 1.3924 12.1954 2.12553 13.5242 3.45365C14.8523 4.77044 15.5848 6.5349 15.5848 8.4049Z" fill="white"/>
</g>
<defs>
<clipPath id="clip0">
<rect width="17" height="17" fill="white"/>
</clipPath>
</defs>
</svg>
