<svg width="38" height="40" viewBox="0 0 38 40" fill="none" xmlns="http://www.w3.org/2000/svg">
<g clip-path="url(#clip0)">
<path d="M3.24589 11.975C5.53183 8.48507 9.05973 5.99537 13.1139 5.011C13.2698 4.97347 13.4146 4.89939 13.5362 4.79487C13.6579 4.69036 13.7529 4.5584 13.8135 4.4099C13.874 4.2614 13.8984 4.10063 13.8846 3.94085C13.8707 3.78107 13.8191 3.62687 13.7339 3.491C13.1993 2.63056 12.4945 1.88845 11.6628 1.31022C10.831 0.731999 9.88989 0.329861 8.89713 0.128494C7.90436 -0.072873 6.88091 -0.0692201 5.88961 0.139228C4.8983 0.347677 3.96006 0.756523 3.13247 1.34067C2.30487 1.92482 1.6054 2.67194 1.07697 3.53617C0.548547 4.40041 0.202324 5.36352 0.0595558 6.36639C-0.0832129 7.36927 -0.0195148 8.39074 0.24674 9.3681C0.512995 10.3455 0.976189 11.2581 1.60789 12.05C1.70778 12.1748 1.83578 12.2743 1.98143 12.3402C2.12708 12.4061 2.28626 12.4367 2.44598 12.4294C2.60569 12.4221 2.76141 12.3771 2.90043 12.2981C3.03944 12.2192 3.15782 12.1084 3.24589 11.975Z" fill="#FF063E"/>
<path d="M30.1043 -4.2144e-06C28.8501 -0.000527385 27.6162 0.316938 26.518 0.922722C25.4197 1.52851 24.493 2.40283 23.8243 3.464C23.7379 3.60023 23.6853 3.75518 23.671 3.91589C23.6567 4.0766 23.681 4.23841 23.742 4.38779C23.803 4.53717 23.8988 4.66978 24.0215 4.77454C24.1442 4.87931 24.2902 4.95319 24.4473 4.99C28.5092 5.95 32.0529 8.42076 34.3583 11.9C34.4476 12.0339 34.5674 12.1447 34.7079 12.2231C34.8485 12.3016 35.0056 12.3454 35.1665 12.3511C35.3273 12.3568 35.4872 12.3241 35.6329 12.2557C35.7786 12.1874 35.9059 12.0853 36.0043 11.958C36.8499 10.8574 37.3703 9.54191 37.5065 8.16069C37.6428 6.77947 37.3896 5.38769 36.7755 4.14301C36.1614 2.89834 35.2109 1.85054 34.0319 1.1183C32.8528 0.386063 31.4923 -0.00133459 30.1043 -4.2144e-06Z" fill="#FF063E"/>
<path d="M35.2181 22.781C35.2144 18.8688 33.8109 15.0871 31.2615 12.1197C28.7121 9.15235 25.185 7.19512 21.3181 6.602C20.4956 6.46909 19.6642 6.39922 18.8311 6.393C15.8934 6.41788 13.0147 7.22107 10.4885 8.72073C7.96224 10.2204 5.87867 12.3629 4.45008 14.93C2.66853 18.1812 2.04656 21.9419 2.68649 25.5936C3.32642 29.2452 5.19014 32.5704 7.97108 35.022L6.58708 36.967C6.44558 37.1661 6.34469 37.3912 6.29018 37.6294C6.23566 37.8675 6.22858 38.114 6.26934 38.3549C6.35167 38.8414 6.62388 39.2752 7.02608 39.561C7.42828 39.8468 7.92753 39.9611 8.414 39.8787C8.90047 39.7964 9.33431 39.5242 9.62008 39.122L11.0001 37.178C13.4013 38.4863 16.0921 39.1718 18.8266 39.1718C21.5611 39.1718 24.2519 38.4863 26.6531 37.178L28.0331 39.122C28.3188 39.5242 28.7527 39.7964 29.2392 39.8787C29.7256 39.9611 30.2249 39.8468 30.6271 39.561C31.0293 39.2752 31.3015 38.8414 31.3838 38.3549C31.4661 37.8684 31.3518 37.3692 31.0661 36.967L29.6871 35.022C31.4241 33.4904 32.8156 31.6068 33.7692 29.4964C34.7228 27.386 35.2167 25.0969 35.2181 22.781ZM18.8301 34.587C16.4965 34.587 14.2153 33.8951 12.275 32.5988C10.3346 31.3024 8.82217 29.4599 7.92888 27.304C7.03559 25.1482 6.80156 22.7759 7.25638 20.4871C7.7112 18.1983 8.83444 16.0958 10.4841 14.4453C12.1338 12.7948 14.2358 11.6704 16.5243 11.2145C18.8129 10.7585 21.1853 10.9913 23.3416 11.8835C25.4979 12.7757 27.3412 14.2872 28.6385 16.2269C29.9358 18.1666 30.6289 20.4474 30.6301 22.781C30.6269 25.9101 29.3829 28.9103 27.1708 31.1235C24.9587 33.3367 21.9592 34.5822 18.8301 34.587Z" fill="#FF063E"/>
<path d="M25.4433 25.543L20.9433 22.762C20.8502 22.2487 20.5737 21.7867 20.1653 21.462L20.3713 15.811C20.3817 15.4661 20.2554 15.1311 20.0199 14.8789C19.7843 14.6268 19.4587 14.4779 19.1139 14.4647C18.7691 14.4515 18.4331 14.5751 18.179 14.8085C17.9249 15.0419 17.7734 15.3663 17.7573 15.711L17.5473 21.374C17.0985 21.6872 16.7844 22.1583 16.6679 22.6931C16.5514 23.2279 16.6412 23.787 16.9192 24.2585C17.1972 24.73 17.643 25.0791 18.1674 25.2361C18.6917 25.393 19.256 25.3462 19.7473 25.105L24.0673 27.774C24.2136 27.8706 24.3778 27.9368 24.5502 27.9688C24.7225 28.0007 24.8996 27.9977 25.0707 27.96C25.2419 27.9222 25.4038 27.8504 25.5467 27.7489C25.6896 27.6474 25.8107 27.5182 25.9027 27.369C25.9948 27.2198 26.0559 27.0537 26.0825 26.8804C26.1091 26.7071 26.1007 26.5303 26.0576 26.3604C26.0146 26.1904 25.9379 26.0309 25.832 25.8912C25.7261 25.7514 25.5933 25.6344 25.4413 25.547L25.4433 25.543Z" fill="#FF063E"/>
</g>
<defs>
<clipPath id="clip0">
<rect width="37.544" height="39.904" fill="white"/>
</clipPath>
</defs>
</svg>
