<svg xmlns="http://www.w3.org/2000/svg" width="33" height="33" viewBox="0 0 33 33">
  <g id="contato" transform="translate(-735 -679)">
    <g id="Elipse_3" data-name="Elipse 3" transform="translate(735 679)" fill="#b5b5b5" stroke="#b5b5b5" stroke-width="1">
      <circle cx="16.5" cy="16.5" r="16.5" stroke="none"/>
      <circle cx="16.5" cy="16.5" r="16" fill="none"/>
    </g>
    <g id="contact" transform="translate(741.756 674.587)">
      <g id="Grupo_4" data-name="Grupo 4" transform="translate(0 13.7)">
        <g id="Grupo_3" data-name="Grupo 3" transform="translate(0 0)">
          <path id="Caminho_3" data-name="Caminho 3" d="M13.383,115.526l-2.962-1.975a.305.305,0,0,0-.408.066l-.862,1.109a.925.925,0,0,1-1.185.244l-.159-.088a10.418,10.418,0,0,1-2.713-2.126,10.4,10.4,0,0,1-2.126-2.713l-.088-.159a.924.924,0,0,1,.244-1.184l1.108-.863a.3.3,0,0,0,.066-.408l-1.974-2.962a.3.3,0,0,0-.408-.092l-1.239.743a1.192,1.192,0,0,0-.546.7c-.407,1.482-.065,4.078,3.877,8.02s6.537,4.285,8.02,3.878a1.193,1.193,0,0,0,.7-.546l.743-1.239A.3.3,0,0,0,13.383,115.526Z" transform="translate(0 -101.221)" fill="#fff"/>
          <path id="Caminho_4" data-name="Caminho 4" d="M112.96,13.75a.171.171,0,0,0-.123-.05H99.687a.171.171,0,0,0-.173.173v4.569l.746,1.119a.935.935,0,0,1-.2,1.252l-1.108.863a.3.3,0,0,0-.081.384l.09.165a7.913,7.913,0,0,0,1.047,1.526h12.83a.171.171,0,0,0,.173-.169V13.872A.171.171,0,0,0,112.96,13.75Zm-8.917,5.708v0L100.828,22.9a.314.314,0,1,1-.459-.428l3.215-3.443a.314.314,0,0,1,.459.428Zm2.219-.247a1.04,1.04,0,0,1-.628-.207l-5.245-3.978a.314.314,0,0,1,.381-.5l5.243,3.978a.423.423,0,0,0,.5,0l5.245-3.978a.314.314,0,0,1,.379.5L106.89,19A1.04,1.04,0,0,1,106.262,19.21Zm5.9,3.705a.314.314,0,0,1-.444-.015L108.5,19.456a.314.314,0,0,1,.46-.426l3.214,3.443A.314.314,0,0,1,112.16,22.915Z" transform="translate(-95.439 -13.7)" fill="#fff"/>
        </g>
      </g>
    </g>
  </g>
</svg>
