<svg xmlns="http://www.w3.org/2000/svg" width="33" height="32.999" viewBox="0 0 33 32.999">
  <g id="dadospessoais" transform="translate(0 -0.001)">
    <path id="Caminho_21049" data-name="Caminho 21049" d="M16.5,0A16.5,16.5,0,1,0,33,16.5,16.5,16.5,0,0,0,16.5,0Zm0,4.933a5.457,5.457,0,1,1-5.457,5.457A5.458,5.458,0,0,1,16.5,4.934Zm0,23.751a12.109,12.109,0,0,1-7.885-2.908,2.326,2.326,0,0,1-.816-1.768,5.5,5.5,0,0,1,5.531-5.5h6.35a5.5,5.5,0,0,1,5.522,5.5,2.32,2.32,0,0,1-.815,1.767A12.105,12.105,0,0,1,16.5,28.686Z" transform="translate(0 0)" fill="#b5b5b5"/>
  </g>
</svg>
