<svg width="23" height="27" viewBox="0 0 23 27" fill="none" xmlns="http://www.w3.org/2000/svg">
<path fill-rule="evenodd" clip-rule="evenodd" d="M17.3093 22.629H15.0373V19.5385H11.8102V22.629H9.46449L13.3859 26.2768L17.3093 22.629ZM21.5421 7.78384H17.5891C17.1726 7.78384 16.5941 7.56339 16.3206 7.29302C16.0471 7.02266 15.8809 6.53392 15.8809 6.12629V2.16856H5.43372C5.40006 2.16856 5.37271 2.1852 5.35588 2.20184C5.32643 2.22055 5.31802 2.24551 5.31802 2.28086V20.5264C5.31802 20.5513 5.33695 20.5867 5.35168 20.6033C5.37061 20.6304 5.40637 20.6366 5.43162 20.6366H8.15806C7.94138 21.0858 7.78149 21.5704 7.68893 22.0737H4.98562C4.67848 22.0737 4.40499 21.9531 4.20093 21.7513C3.99897 21.5517 3.87695 21.2813 3.87695 20.9756V1.82956C3.87695 1.52592 4.00107 1.25556 4.20093 1.05382C4.40499 0.852088 4.68689 0.731463 4.98562 0.731463H16.6214C16.6467 0.723145 16.6719 0.723145 16.6992 0.723145C16.8213 0.723145 16.9475 0.775138 17.0337 0.852088H17.0506C17.0695 0.862487 17.0779 0.870806 17.0948 0.885364L22.8317 6.62543C22.9284 6.7211 23 6.85212 23 6.99978C23 7.04345 22.9915 7.07673 22.9831 7.12456C22.9831 12.3697 22.9831 15.7326 22.9831 20.9777C22.9831 21.2813 22.859 21.5538 22.657 21.7534C22.453 21.9531 22.1795 22.0758 21.8723 22.0758H18.9334C18.8409 21.5704 18.6831 21.0879 18.4643 20.6387H21.4242C21.4579 20.6387 21.4579 20.62 21.4768 20.6054C21.5042 20.5867 21.54 20.5513 21.54 20.5284C21.54 15.6515 21.5421 12.6587 21.5421 7.78384ZM17.1915 6.01191V2.41189L21.2917 6.51728H17.7027C17.5618 6.51728 17.4377 6.45697 17.3409 6.36962C17.2525 6.28227 17.1915 6.15125 17.1915 6.01191Z" fill="white"/>
<path fill-rule="evenodd" clip-rule="evenodd" d="M0 8.73221H18.7023V17.6148H0V8.73221Z" fill="white"/>
<path d="M2.5397 10.8348H5.0158C5.55436 10.8348 5.95828 10.9617 6.22545 11.2133C6.49263 11.4671 6.62727 11.8248 6.62727 12.2907C6.62727 12.769 6.48211 13.1433 6.18759 13.4137C5.89517 13.6841 5.44917 13.8172 4.8475 13.8172H4.03336V15.5766H2.5376V10.8348H2.5397ZM4.03546 12.8563H4.39941C4.68762 12.8563 4.88958 12.8085 5.00318 12.7087C5.11889 12.6109 5.17779 12.4861 5.17779 12.3322C5.17779 12.1825 5.1273 12.0556 5.02632 11.9537C4.92745 11.8497 4.73601 11.7978 4.45831 11.7978H4.03336V12.8563H4.03546ZM7.36147 10.8348H9.5725C10.008 10.8348 10.3614 10.8931 10.6286 11.0095C10.8958 11.126 11.1167 11.2924 11.2934 11.5108C11.468 11.7291 11.5942 11.9829 11.6741 12.2719C11.752 12.561 11.792 12.8667 11.792 13.1912C11.792 13.6986 11.733 14.0917 11.6152 14.3704C11.4995 14.6491 11.3354 14.8841 11.1272 15.0733C10.9189 15.2626 10.6959 15.3874 10.4582 15.4498C10.1321 15.535 9.83547 15.5787 9.5704 15.5787H7.36147V10.8348ZM8.84882 11.9101V14.4993H9.21277C9.52412 14.4993 9.74501 14.4661 9.87755 14.3974C10.008 14.3309 10.1111 14.2102 10.1868 14.0418C10.2604 13.8733 10.2983 13.5988 10.2983 13.2182C10.2983 12.7149 10.2162 12.3718 10.0501 12.1867C9.88386 12.0016 9.60616 11.908 9.22118 11.908H8.84882V11.9101ZM12.5156 10.8348H16.1972V11.8539H14.0114V12.6816H15.8774V13.6383H14.0114V15.5766H12.5156V10.8348Z" fill="#007BFF"/>
</svg>
