<svg width="68" height="64" viewBox="0 0 68 64" fill="none" xmlns="http://www.w3.org/2000/svg">
  <defs>
    <linearGradient id="community-primary" x1="12" y1="8" x2="56" y2="60" gradientUnits="userSpaceOnUse">
      <stop offset="0%" stop-color="#8338EC"/>
      <stop offset="45%" stop-color="#FF006E"/>
      <stop offset="100%" stop-color="#FB5607"/>
    </linearGradient>
    <linearGradient id="community-secondary" x1="18" y1="10" x2="42" y2="52" gradientUnits="userSpaceOnUse">
      <stop offset="0%" stop-color="#FEE440"/>
      <stop offset="100%" stop-color="#FF9F1C"/>
    </linearGradient>
    <radialGradient id="community-glow" cx="0" cy="0" r="1" gradientTransform="matrix(0 30 -30 0 34 36)" gradientUnits="userSpaceOnUse">
      <stop offset="0%" stop-color="#FFE7FF" stop-opacity="0.9"/>
      <stop offset="55%" stop-color="#F7D8FF" stop-opacity="0.45"/>
      <stop offset="100%" stop-color="#F3C6FF" stop-opacity="0"/>
    </radialGradient>
  </defs>

  <ellipse cx="34" cy="44" rx="26" ry="16" fill="url(#community-glow)" />

  <path d="M34 11C30.134 11 27 14.134 27 18C27 21.866 30.134 25 34 25C37.866 25 41 21.866 41 18C41 14.134 37.866 11 34 11Z"
        fill="url(#community-secondary)"/>

  <path d="M48 16C44.6863 16 42 18.6863 42 22C42 25.3137 44.6863 28 48 28C51.3137 28 54 25.3137 54 22C54 18.6863 51.3137 16 48 16Z"
        fill="url(#community-primary)" opacity="0.7"/>

  <path d="M20 16C23.3137 16 26 18.6863 26 22C26 25.3137 23.3137 28 20 28C16.6863 28 14 25.3137 14 22C14 18.6863 16.6863 16 20 16Z"
        fill="url(#community-primary)" opacity="0.7"/>

  <path d="M34 28C27.9249 28 23 32.9249 23 39V45.5C23 47.433 24.567 49 26.5 49H41.5C43.433 49 45 47.433 45 45.5V39C45 32.9249 40.0751 28 34 28Z"
        fill="url(#community-primary)"/>

  <path d="M16 31C12.134 31 9 33.6863 9 37V43.5C9 45.433 10.567 47 12.5 47H21"
        stroke="url(#community-primary)" stroke-width="4" stroke-linecap="round" stroke-linejoin="round" opacity="0.75"/>

  <path d="M52 31C55.866 31 59 33.6863 59 37V43.5C59 45.433 57.433 47 55.5 47H47"
        stroke="url(#community-primary)" stroke-width="4" stroke-linecap="round" stroke-linejoin="round" opacity="0.75"/>

  <circle cx="48" cy="22" r="4" fill="#FFE8F4" opacity="0.6"/>
  <circle cx="20" cy="22" r="4" fill="#FFE8F4" opacity="0.6"/>

  <path d="M25 47C26 50.5 29 53 34 53C39 53 42 50.5 43 47"
        stroke="#FFBE0B" stroke-width="3" stroke-linecap="round" stroke-opacity="0.7"/>
</svg>