<svg width="17" height="17" viewBox="0 0 17 17" fill="none" xmlns="http://www.w3.org/2000/svg">
<g clip-path="url(#clip0_16:6650)">
<path d="M7.86979 0.0100147C6.49001 0.0779793 5.1492 0.490211 3.96956 1.20913C2.78992 1.92805 1.80898 2.93079 1.11617 4.12595C0.423349 5.3211 0.0406898 6.67066 0.00307015 8.05159C-0.0345495 9.43252 0.274067 10.8009 0.900787 12.032L0.0217867 16.3C0.0108991 16.353 0.0135589 16.408 0.0295203 16.4597C0.0454817 16.5114 0.0742292 16.5583 0.113105 16.596C0.15198 16.6337 0.199729 16.6609 0.251935 16.6753C0.304141 16.6896 0.35912 16.6906 0.411787 16.678L4.58979 15.688C5.72214 16.2499 6.96817 16.5449 8.23226 16.5504C9.49634 16.5558 10.7449 16.2716 11.882 15.7195C13.0192 15.1674 14.0148 14.3621 14.7923 13.3655C15.5699 12.3688 16.1088 11.2073 16.3676 9.96996C16.6265 8.73265 16.5984 7.45248 16.2856 6.2277C15.9728 5.00292 15.3836 3.86609 14.5631 2.90444C13.7426 1.9428 12.7127 1.18191 11.5525 0.680174C10.3922 0.178436 9.13242 -0.0508153 7.86979 0.0100147ZM12.8558 12.856C11.896 13.8154 10.6593 14.4494 9.31999 14.6686C7.98072 14.8879 6.60642 14.6813 5.39079 14.078L4.80879 13.788L2.24679 14.395L2.78579 11.777L2.49879 11.216C1.87865 9.99645 1.66017 8.61197 1.87464 7.2607C2.0891 5.90944 2.72551 4.66064 3.69279 3.69301C4.29166 3.07926 5.00642 2.5905 5.79561 2.25506C6.58481 1.91962 7.43274 1.74419 8.29025 1.73893C9.14776 1.73367 9.99778 1.89868 10.791 2.22441C11.5843 2.55014 12.305 3.0301 12.9113 3.63646C13.5177 4.24282 13.9977 4.96352 14.3234 5.75677C14.6491 6.55002 14.8141 7.40004 14.8089 8.25755C14.8036 9.11506 14.6282 9.96299 14.2927 10.7522C13.9573 11.5414 13.4685 12.2561 12.8548 12.855L12.8558 12.856Z" fill="#007BFF"/>
<path d="M12.2902 10.069L10.6902 9.60901C10.5867 9.57967 10.4773 9.57867 10.3733 9.60611C10.2693 9.63356 10.1746 9.68844 10.0992 9.76502L9.70715 10.165C9.62643 10.2476 9.52301 10.3045 9.40998 10.3283C9.29695 10.3522 9.17938 10.342 9.07215 10.299C7.9865 9.69747 7.04473 8.86694 6.31216 7.86502C6.25502 7.7647 6.22888 7.6497 6.23707 7.53454C6.24526 7.41939 6.2874 7.30924 6.35816 7.21801L6.70016 6.77501C6.76578 6.68976 6.80726 6.58844 6.82028 6.48165C6.8333 6.37486 6.81737 6.26654 6.77416 6.16802L6.10015 4.64302C6.06217 4.55839 6.00509 4.48372 5.93338 4.42488C5.86168 4.36603 5.77731 4.32462 5.6869 4.30388C5.59649 4.28315 5.50251 4.28365 5.41232 4.30536C5.32214 4.32707 5.23822 4.3694 5.16715 4.42901C4.63818 4.815 4.26751 5.38007 4.12415 6.01902C4.01015 7.14202 4.49216 8.55702 6.31316 10.257C8.41316 12.221 10.1022 12.48 11.1992 12.214C11.8126 11.9849 12.3219 11.5407 12.6322 10.964C12.6815 10.8853 12.7118 10.7962 12.7209 10.7038C12.7299 10.6113 12.7173 10.5181 12.6842 10.4313C12.651 10.3445 12.5982 10.2667 12.5298 10.2038C12.4614 10.1409 12.3794 10.0948 12.2902 10.069Z" fill="#007BFF"/>
</g>
<defs>
<clipPath id="clip0_16:6650">
<rect width="16.548" height="16.683" fill="white"/>
</clipPath>
</defs>
</svg>
