<svg width="47" height="33" viewBox="0 0 47 33" fill="none" xmlns="http://www.w3.org/2000/svg">
<path d="M19.1304 23.0975V10.2893L30.3875 16.6936L19.1304 23.0975Z" fill="#007BFF"/>
<path d="M6.84863 2.39073C6.79993 2.40248 6.75295 2.41447 6.70792 2.4267C4.8549 2.9252 3.39539 4.39401 2.90008 6.25926C2 9.63982 2 16.6934 2 16.6934C2 16.6934 2 23.7467 2.90008 27.1275C3.39539 28.9925 4.8549 30.4616 6.70792 30.9601C10.0667 31.866 23.5353 31.866 23.5353 31.866C23.5353 31.866 37.004 31.866 40.3628 30.9601C42.2158 30.4616 43.6753 28.9925 44.1706 27.1275C45.0707 23.7467 45.0707 16.6934 45.0707 16.6934C45.0707 16.6934 45.0707 9.63982 44.1706 6.25926C43.6753 4.39401 42.2158 2.9252 40.3628 2.4267C37.004 1.52075 23.5353 1.52075 23.5353 1.52075C23.5353 1.52075 10.4259 1.52075 6.84863 2.39073Z" stroke="#939393" stroke-width="2.05" stroke-linecap="round"/>
</svg>
