<svg width="31" height="34" viewBox="0 0 31 34" fill="none" xmlns="http://www.w3.org/2000/svg">
<path fill-rule="evenodd" clip-rule="evenodd" d="M22.6154 28.6207H19.6469V24.5829H15.4306V28.6207H12.3659L17.4893 33.3867L22.6154 28.6207ZM28.1456 9.22503H22.981C22.4368 9.22503 21.6809 8.937 21.3236 8.58376C20.9663 8.23052 20.7491 7.59197 20.7491 7.05939V1.88848H7.09953C7.05556 1.88848 7.01983 1.91022 6.99784 1.93196C6.95936 1.95641 6.94836 1.98902 6.94836 2.03521V25.8736C6.94836 25.9062 6.9731 25.9524 6.99234 25.9741C7.01708 26.0094 7.0638 26.0176 7.09679 26.0176H10.659C10.3759 26.6045 10.167 27.2376 10.046 27.8952H6.51408C6.11279 27.8952 5.75547 27.7376 5.48885 27.474C5.22499 27.2132 5.06557 26.8599 5.06557 26.4605V1.44557C5.06557 1.04885 5.22773 0.695614 5.48885 0.432041C5.75547 0.168469 6.12378 0.010869 6.51408 0.010869H21.7166C21.7496 0 21.7826 0 21.8183 0C21.9777 0 22.1427 0.067931 22.2553 0.168469H22.2773C22.3021 0.182055 22.3131 0.192924 22.3351 0.211945L29.8305 7.71153C29.9569 7.83652 30.0504 8.00771 30.0504 8.20063C30.0504 8.25769 30.0394 8.30117 30.0284 8.36367C30.0284 15.2165 30.0284 19.6103 30.0284 26.4632C30.0284 26.8599 29.8662 27.2159 29.6024 27.4767C29.3358 27.7376 28.9784 27.8979 28.5771 27.8979H24.7373C24.6164 27.2376 24.4103 26.6072 24.1244 26.0203H27.9917C28.0357 26.0203 28.0357 25.9958 28.0604 25.9768C28.0961 25.9524 28.1429 25.9062 28.1429 25.8763C28.1429 19.5044 28.1456 15.5942 28.1456 9.22503ZM22.4615 6.90994V2.2064L27.8185 7.57023H23.1294C22.9452 7.57023 22.7831 7.49143 22.6566 7.37731C22.5412 7.26318 22.4615 7.092 22.4615 6.90994Z" fill="#939393"/>
<path fill-rule="evenodd" clip-rule="evenodd" d="M0 10.4641H24.4351V22.0694H0V10.4641Z" fill="#007BFF"/>
<path d="M3.31751 13.2112H6.55262C7.25626 13.2112 7.78399 13.377 8.13306 13.7058C8.48214 14.0373 8.65805 14.5046 8.65805 15.1133C8.65805 15.7383 8.46839 16.2274 8.08359 16.5806C7.70153 16.9339 7.11883 17.1078 6.33273 17.1078H5.26902V19.4065H3.31476V13.2112H3.31751ZM5.27177 15.8524H5.74727C6.12383 15.8524 6.3877 15.7899 6.53612 15.6595C6.6873 15.5318 6.76426 15.3687 6.76426 15.1677C6.76426 14.972 6.69829 14.8063 6.56636 14.6731C6.43717 14.5373 6.18705 14.4693 5.82424 14.4693H5.26902V15.8524H5.27177ZM9.61731 13.2112H12.5061C13.0751 13.2112 13.5368 13.2873 13.8859 13.4395C14.235 13.5917 14.5236 13.809 14.7545 14.0943C14.9826 14.3797 15.1475 14.7112 15.252 15.0889C15.3537 15.4665 15.4059 15.866 15.4059 16.2899C15.4059 16.9529 15.3289 17.4664 15.175 17.8305C15.0238 18.1947 14.8094 18.5017 14.5373 18.749C14.2652 18.9962 13.9739 19.1593 13.6633 19.2408C13.2372 19.3522 12.8497 19.4093 12.5033 19.4093H9.61731V13.2112ZM11.5606 14.6161V17.999H12.0361C12.4429 17.999 12.7315 17.9555 12.9046 17.8659C13.0751 17.7789 13.2097 17.6213 13.3087 17.4012C13.4049 17.1811 13.4544 16.8225 13.4544 16.3252C13.4544 15.6676 13.3472 15.2193 13.13 14.9774C12.9129 14.7356 12.5501 14.6133 12.0471 14.6133H11.5606V14.6161ZM16.3514 13.2112H21.1615V14.5427H18.3057V15.6241H20.7437V16.8741H18.3057V19.4065H16.3514V13.2112Z" fill="white"/>
</svg>
