<svg width="22" height="22" viewBox="0 0 22 22" fill="none" xmlns="http://www.w3.org/2000/svg">
<g clip-path="url(#clip0_44:18806)">
<path d="M21.9995 8.88682L21.8006 1.67697C21.7783 0.870793 21.1295 0.221907 20.3232 0.199594L13.1133 0.000609258C12.6921 -0.0111688 12.2936 0.148208 11.9967 0.445144L0.44561 11.9963C-0.14697 12.5889 -0.14697 13.553 0.44561 14.1456L7.8545 21.5544C8.44842 22.1485 9.4098 22.1486 10.0039 21.5545L21.555 10.0034C21.849 9.7094 22.011 9.30238 21.9995 8.88682ZM18.6983 6.95647C17.6883 7.9664 16.0537 7.9665 15.0437 6.95647C14.0361 5.94887 14.0361 4.30939 15.0437 3.30184C16.0537 2.29186 17.6883 2.29181 18.6983 3.30184C19.7058 4.30939 19.7058 5.94887 18.6983 6.95647Z" fill="white"/>
</g>
<defs>
<clipPath id="clip0_44:18806">
<rect width="22" height="22" fill="white"/>
</clipPath>
</defs>
</svg>
