<svg width="25" height="19" viewBox="0 0 25 19" fill="none" xmlns="http://www.w3.org/2000/svg">
<path d="M1.66667 0.472168H0V18.5277H1.66667V0.472168Z" fill="#007BFF"/>
<path d="M3.61111 0.472168H2.5V13.8055H3.61111V0.472168Z" fill="#007BFF"/>
<path d="M6.66677 0.472168H5.55566V13.8055H6.66677V0.472168Z" fill="#007BFF"/>
<path d="M9.16667 0.472168H7.5V13.8055H9.16667V0.472168Z" fill="#007BFF"/>
<path d="M4.99984 0.472168H4.1665V13.8055H4.99984V0.472168Z" fill="#007BFF"/>
<path d="M10.5555 0.472168H9.72217V13.8055H10.5555V0.472168Z" fill="#007BFF"/>
<path d="M15.3705 0.472168H13.6113V13.8055H15.3705H15.88H16.9447V0.472168H15.88H15.3705Z" fill="#007BFF"/>
<path d="M12.4997 0.472168H11.1108V13.8055H12.4997V0.472168Z" fill="#007BFF"/>
<path d="M23.0553 0.472168H21.3887V13.8055H23.0553V0.472168Z" fill="#007BFF"/>
<path d="M19.537 0.472168H18.0557V13.8055H19.537H19.8148H20.5557V0.472168H19.8148H19.537Z" fill="#007BFF"/>
<path d="M24.9997 0.472168H23.6108V18.5277H24.9997V0.472168Z" fill="#007BFF"/>
<path d="M4.5813 17.0373C4.5813 17.9881 4.22853 18.5129 3.60908 18.5129C3.06268 18.5129 2.6927 18.001 2.68408 17.076C2.68408 16.1382 3.08853 15.6221 3.6563 15.6221C4.24577 15.6217 4.5813 16.1467 4.5813 17.0373ZM3.06272 17.0801C3.06272 17.8073 3.28633 18.2201 3.63049 18.2201C4.0177 18.2201 4.20271 17.7684 4.20271 17.0542C4.20271 16.3659 4.02632 15.9142 3.63494 15.9142C3.30381 15.9142 3.06272 16.3187 3.06272 17.0801Z" fill="#007BFF"/>
<path d="M5.79511 16.0215H5.78649L5.30038 16.2837L5.22705 15.9957L5.83788 15.6685H6.16067V18.4648H5.79511V16.0215Z" fill="#007BFF"/>
<path d="M7.22461 18.4647V18.2325L7.52126 17.9442C8.23544 17.2644 8.55794 16.9031 8.56235 16.4814C8.56235 16.1975 8.42457 15.935 8.00737 15.935C7.75349 15.935 7.54267 16.0639 7.4135 16.1717L7.29295 15.905C7.48658 15.7414 7.76211 15.6211 8.0849 15.6211C8.68711 15.6211 8.94103 16.0339 8.94103 16.4342C8.94103 16.9503 8.5666 17.3678 7.97714 17.9356L7.75325 18.1422V18.1505H9.00937V18.4647H7.22461Z" fill="#007BFF"/>
<path d="M9.56571 18.0302C9.67323 18.0991 9.92265 18.2066 10.1852 18.2066C10.6716 18.2066 10.8221 17.8972 10.8177 17.6646C10.8132 17.2733 10.4604 17.1052 10.0946 17.1052H9.88381V16.8216H10.0946C10.3699 16.8216 10.7185 16.6793 10.7185 16.3483C10.7185 16.1246 10.5766 15.9269 10.228 15.9269C10.0041 15.9269 9.78908 16.0257 9.66853 16.1119L9.56992 15.8366C9.71604 15.7288 10.0002 15.6216 10.3013 15.6216C10.8519 15.6216 11.1016 15.9485 11.1016 16.2882C11.1016 16.5766 10.9294 16.8219 10.5852 16.9466V16.9549C10.9294 17.0238 11.2091 17.2821 11.2091 17.6735C11.2091 18.1208 10.8605 18.5124 10.1894 18.5124C9.87547 18.5124 9.60019 18.4138 9.4624 18.3233L9.56571 18.0302Z" fill="#007BFF"/>
<path d="M12.8968 18.4646V17.7032H11.5977V17.4535L12.8452 15.668H13.2541V17.4063H13.6455V17.7029H13.2541V18.4643H12.8968V18.4646ZM12.8968 17.4065V16.4729C12.8968 16.3268 12.9013 16.1804 12.9099 16.034H12.8968C12.8107 16.1976 12.7419 16.3179 12.6646 16.4471L11.9805 17.3979V17.4065H12.8968Z" fill="#007BFF"/>
<path d="M15.6468 15.9867H14.5799L14.4721 16.7053C14.5366 16.6967 14.5968 16.6879 14.7002 16.6879C14.9152 16.6879 15.1305 16.7354 15.3024 16.8384C15.5218 16.9631 15.7024 17.204 15.7024 17.5571C15.7024 18.1035 15.268 18.512 14.6613 18.512C14.3557 18.512 14.098 18.4259 13.9644 18.3401L14.0591 18.0518C14.1752 18.1207 14.4032 18.2068 14.6569 18.2068C15.0141 18.2068 15.3197 17.9745 15.3197 17.6001C15.3152 17.2387 15.0744 16.981 14.5152 16.981C14.3561 16.981 14.2313 16.9982 14.128 17.0109L14.3086 15.6685H15.6463V15.9868H15.6468V15.9867Z" fill="#007BFF"/>
<path d="M17.8252 15.9355C17.748 15.931 17.6488 15.9355 17.5413 15.9527C16.9474 16.0516 16.6333 16.4864 16.5691 16.9466H16.5819C16.7152 16.7699 16.9474 16.6238 17.2575 16.6238C17.7522 16.6238 18.1008 16.9811 18.1008 17.5274C18.1008 18.0394 17.7522 18.5124 17.1713 18.5124C16.5733 18.5124 16.1816 18.048 16.1816 17.3208C16.1816 16.7702 16.3797 16.3357 16.655 16.0605C16.8872 15.8324 17.1969 15.6904 17.55 15.6474C17.6617 15.6301 17.7564 15.626 17.825 15.626V15.9354H17.8252V15.9355ZM17.7177 17.5488C17.7177 17.1488 17.4896 16.9077 17.1413 16.9077C16.9133 16.9077 16.7024 17.0497 16.5994 17.2519C16.5733 17.2947 16.5563 17.3505 16.5563 17.4197C16.5649 17.88 16.7758 18.2199 17.1716 18.2199C17.4983 18.2199 17.7177 17.9488 17.7177 17.5488Z" fill="#007BFF"/>
<path d="M20.2951 15.6685V15.9179L19.0776 18.4649H18.6862L19.8993 15.9913V15.9826H18.5312V15.6685L20.2951 15.6685Z" fill="#007BFF"/>
<path d="M20.6968 17.755C20.6968 17.4025 20.9076 17.1528 21.2518 17.0067L21.2473 16.9936C20.9376 16.8475 20.804 16.6064 20.804 16.3655C20.804 15.9222 21.1784 15.6211 21.6687 15.6211C22.2106 15.6211 22.4817 15.9611 22.4817 16.3094C22.4817 16.5461 22.3656 16.8 22.0214 16.9633V16.9764C22.3701 17.1139 22.5851 17.3591 22.5851 17.6992C22.5851 18.1853 22.1678 18.5122 21.6342 18.5122C21.0493 18.5119 20.6968 18.1636 20.6968 17.755ZM22.2026 17.7378C22.2026 17.3978 21.9657 17.2342 21.5873 17.1269C21.2601 17.2217 21.0837 17.4367 21.0837 17.7033C21.071 17.9872 21.2862 18.2367 21.6432 18.2367C21.9832 18.2367 22.2026 18.0258 22.2026 17.7378ZM21.1615 16.3394C21.1615 16.6192 21.3723 16.7697 21.6949 16.8558C21.9357 16.7739 22.1207 16.6019 22.1207 16.3481C22.1207 16.1244 21.9876 15.8919 21.6476 15.8919C21.3335 15.8922 21.1615 16.0986 21.1615 16.3394Z" fill="#007BFF"/>
</svg>
