<svg width="29" height="29" viewBox="0 0 29 29" fill="none" xmlns="http://www.w3.org/2000/svg">
<g clip-path="url(#clip0_211:1977)">
<path d="M27.8929 5.36365L10.1318 1.6049C9.38039 1.44592 8.63558 1.93073 8.4766 2.68217L8.13916 4.85065L28.6325 9.18736L28.9699 7.01889C29.1289 6.26773 28.6444 5.52268 27.8929 5.36365Z" fill="#007BFF"/>
<path d="M20.4238 9.64717C20.2163 8.90009 19.4356 8.4585 18.6887 8.66562L15.317 9.60163L7.36843 7.91943L6.49425 12.0498L1.03236 13.5658C0.285559 13.773 -0.156031 14.5537 0.051093 15.3005L3.12919 26.3926C3.33664 27.1394 4.11742 27.5812 4.86422 27.3738L22.5206 22.474C23.2674 22.2665 23.709 21.4861 23.5019 20.7389L22.9735 18.8348L24.9537 19.2534C25.7052 19.4127 26.45 18.9279 26.609 18.1764L27.8618 12.2562L20.729 10.7468L20.4238 9.64717ZM22.4628 15.2846L22.8995 13.2208C22.9651 12.9118 23.2715 12.7125 23.5804 12.7778L25.6442 13.2147C25.9535 13.2803 26.1528 13.5864 26.0875 13.8957L25.6509 15.9594C25.5853 16.2684 25.2789 16.468 24.9699 16.4025L22.9062 15.9658C22.5966 15.9 22.3973 15.5936 22.4628 15.2846ZM1.33961 14.6727L6.22581 13.3172L17.7548 10.1178L18.9954 9.77312C19.018 9.76701 19.0406 9.76412 19.0627 9.76412C19.1622 9.76412 19.2812 9.82942 19.316 9.95447L19.4616 10.479L19.918 12.1235L1.7603 17.1623L1.15827 14.9936C1.12055 14.8575 1.20357 14.7104 1.33961 14.6727ZM22.3946 21.0459C22.4179 21.13 22.3935 21.1996 22.3688 21.2432C22.3445 21.2867 22.2975 21.3436 22.2133 21.3668L4.55726 26.2666C4.53494 26.2727 4.512 26.2759 4.48992 26.2759C4.39041 26.2759 4.27143 26.2103 4.23664 26.0853L2.44129 19.6155L20.599 14.5764L21.7065 18.5666L22.3946 21.0459Z" fill="#007BFF"/>
<path d="M7.40984 21.4888C7.32511 21.1841 7.0071 21.0043 6.70246 21.0887L4.64046 21.6611C4.3361 21.7456 4.15594 22.0639 4.24067 22.3685L4.8128 24.4302C4.89753 24.7349 5.21554 24.9147 5.52018 24.83L7.58218 24.2579C7.88682 24.1734 8.0667 23.8551 7.98226 23.5505L7.40984 21.4888Z" fill="#007BFF"/>
</g>
<defs>
<clipPath id="clip0_211:1977">
<rect width="29" height="29" fill="white"/>
</clipPath>
</defs>
</svg>
