<svg width="24" height="24" viewBox="0 0 24 24" fill="none" xmlns="http://www.w3.org/2000/svg">
<path d="M5.26264 1.76327V2.87941H1.90418C1.28513 2.88187 0.785253 3.38547 0.787617 4.00429V21.928C0.784029 22.5477 1.28427 23.0526 1.90418 23.0551H22.0768C22.7001 23.0575 23.2057 22.5511 23.2021 21.928V4.00429C23.2045 3.38205 22.6993 2.87703 22.0768 2.87941H18.7184V1.76327C18.6989 0.2578 16.4583 0.274879 16.4743 1.76327V2.87941H7.50453V1.76327C7.50684 0.265259 5.26539 0.267432 5.26264 1.76327ZM3.02951 5.12042H5.26264V6.24749C5.26264 7.74689 7.50453 7.72561 7.50453 6.24749V5.12042H16.4743V6.24749C16.4743 7.76031 18.7184 7.72465 18.7184 6.24749V5.12042H20.9602V8.48851H3.02951V5.12042ZM3.02951 10.7208H20.9602V20.8119H3.02951V10.7208ZM5.26264 11.8457C3.86494 11.8457 3.77551 14.0889 5.26264 14.0889H7.50453C9.03109 14.0912 9.06622 11.8502 7.50453 11.8457H5.26264ZM10.8739 11.8457C9.38132 11.85 9.34624 14.0913 10.8739 14.0889H13.1158C14.6172 14.0912 14.7048 11.8504 13.1158 11.8457H10.8739ZM16.4743 11.8457C15.0024 11.85 14.9849 14.0912 16.4743 14.0889H18.7184C20.2043 14.0889 20.2909 11.8503 18.7184 11.8457H16.4743ZM5.26264 16.3299C3.79854 16.3299 3.79855 18.5709 5.26264 18.5709H7.50453C8.9751 18.5749 9.02468 16.3332 7.50453 16.3299H5.26264ZM10.8739 16.3299C9.32641 16.3299 9.35282 18.5709 10.8739 18.5709H13.1158C14.5539 18.5749 14.5788 16.3299 13.1158 16.3299H10.8739ZM16.4743 16.3299C14.9812 16.3331 14.9811 18.5709 16.4743 18.5709H18.7184C20.203 18.575 20.2596 16.3332 18.7184 16.3299H16.4743Z" fill="#007BFF"/>
</svg>
