<svg width="42" height="33" viewBox="0 0 42 33" fill="none" xmlns="http://www.w3.org/2000/svg">
<g clip-path="url(#clip0_83:2137)">
<path d="M24.784 22.393C27.1252 21.468 29.1934 19.9641 30.795 18.022C32.2176 16.3375 32.998 14.2038 32.998 11.999C32.998 9.79417 32.2176 7.6605 30.795 5.976C29.1932 4.03413 27.1251 2.53024 24.784 1.60499C22.1589 0.517575 19.3413 -0.0286699 16.5 -0.00100601C13.6584 -0.0287772 10.8404 0.517469 8.215 1.60499C5.87237 2.5299 3.80277 4.03419 2.2 5.97699C0.788297 7.66719 0.0102845 9.79683 0 11.999C0.00607584 13.8778 0.586721 15.7097 1.664 17.249C2.85156 18.9622 4.41462 20.3816 6.234 21.399C6.078 21.7743 5.918 22.118 5.754 22.43C5.58624 22.7471 5.39011 23.0483 5.168 23.33C4.94133 23.6193 4.76567 23.8457 4.641 24.009C4.51633 24.1723 4.31333 24.4027 4.032 24.7C3.75067 24.9967 3.571 25.192 3.493 25.286C3.493 25.27 3.462 25.306 3.399 25.392C3.336 25.478 3.299 25.517 3.293 25.509C3.287 25.501 3.254 25.54 3.199 25.626L3.117 25.755L3.058 25.872C3.03527 25.9163 3.01942 25.9639 3.011 26.013C3.00307 26.0636 2.99939 26.1148 3 26.166C2.99938 26.2176 3.00715 26.2689 3.023 26.318C3.04865 26.5099 3.14492 26.6853 3.293 26.81C3.42536 26.9286 3.5963 26.995 3.774 26.997H3.844C4.52173 26.9071 5.19431 26.7819 5.859 26.622C8.19584 26.0288 10.404 25.012 12.374 23.622C13.7356 23.8687 15.1163 23.9949 16.5 23.999C19.3413 24.0271 22.159 23.4809 24.784 22.393ZM11.671 20.437L10.64 21.163C10.2027 21.4597 9.71833 21.7643 9.187 22.077L10.007 20.108L7.734 18.799C6.35742 18.0333 5.16544 16.9751 4.242 15.699C3.45197 14.6255 3.01767 13.3317 3 11.999C3.03038 10.3291 3.68711 8.73149 4.84 7.523C6.20388 6.0415 7.904 4.90969 9.797 4.22299C11.9347 3.39774 14.2086 2.9825 16.5 2.99899C18.79 2.98128 21.063 3.39482 23.2 4.218C25.0929 4.90493 26.7929 6.03671 28.157 7.51799C29.3357 8.70977 29.9968 10.3183 29.9968 11.9945C29.9968 13.6707 29.3357 15.2792 28.157 16.471C26.7932 17.9526 25.093 19.0844 23.2 19.771C21.0636 20.5973 18.7906 21.0139 16.5 20.999C15.2973 20.9961 14.0973 20.8863 12.914 20.671L11.671 20.437Z" fill="#007BFF"/>
<path d="M40.3325 23.263C41.4312 21.7001 42.0131 19.8324 41.9964 17.9221C41.9797 16.0117 41.3653 14.1545 40.2395 12.611C38.989 10.8701 37.3527 9.4422 35.4585 8.439C35.945 10.0114 36.1045 11.6668 35.9272 13.3031C35.7499 14.9395 35.2395 16.5223 34.4275 17.954C33.303 19.9149 31.7679 21.6096 29.9275 22.922C28.0479 24.2672 25.9568 25.2889 23.7405 25.945C21.3921 26.6534 18.9515 27.009 16.4985 27C16.0319 27 15.3445 26.969 14.4365 26.907C17.7346 29.0143 21.5858 30.0911 25.4985 30C26.8819 29.9964 28.2622 29.8709 29.6235 29.625C32.1431 31.4403 35.0749 32.6002 38.1545 33C38.2471 33.0079 38.3403 32.9975 38.4288 32.9693C38.5174 32.9412 38.5995 32.8959 38.6705 32.836C38.8282 32.7051 38.9344 32.5227 38.9705 32.321C38.9635 32.227 38.9705 32.176 38.9945 32.168C39.0185 32.16 39.0135 32.11 38.9825 32.016L38.9355 31.875L38.8775 31.758C38.8531 31.7132 38.8257 31.6701 38.7955 31.629C38.7671 31.5878 38.7357 31.5487 38.7015 31.512C38.6785 31.489 38.6435 31.449 38.5965 31.395C38.5495 31.341 38.5185 31.305 38.5025 31.29C38.4245 31.196 38.2449 31.0007 37.9635 30.704C37.6822 30.4073 37.4792 30.177 37.3545 30.013C37.2299 29.849 37.0542 29.6223 36.8275 29.333C36.6053 29.0513 36.4092 28.7501 36.2415 28.433C36.0775 28.1203 35.9175 27.7767 35.7615 27.402C37.579 26.3863 39.142 24.971 40.3325 23.263Z" fill="#007BFF"/>
</g>
<defs>
<clipPath id="clip0_83:2137">
<rect width="41.997" height="33" fill="white"/>
</clipPath>
</defs>
</svg>
