<svg width="23" height="23" viewBox="0 0 23 23" fill="none" xmlns="http://www.w3.org/2000/svg">
<path d="M16.806 14.791C18.1892 12.9001 18.8079 10.5568 18.5382 8.22954C18.2685 5.90229 17.1304 3.76256 15.3514 2.23811C13.5724 0.713656 11.2836 -0.0831858 8.94248 0.00688078C6.60139 0.0969474 4.38054 1.06729 2.72391 2.72391C1.06729 4.38054 0.0969474 6.60139 0.00688078 8.94248C-0.0831858 11.2836 0.713656 13.5724 2.23811 15.3514C3.76256 17.1304 5.90229 18.2685 8.22954 18.5382C10.5568 18.8079 12.9001 18.1892 14.791 16.806L20.859 22.874L22.876 20.859L16.806 14.791ZM9.33696 15.749C8.06879 15.749 6.82909 15.3729 5.77465 14.6683C4.7202 13.9638 3.89836 12.9624 3.41305 11.7907C2.92774 10.6191 2.80076 9.32985 3.04817 8.08604C3.29558 6.84224 3.90626 5.69973 4.80299 4.80299C5.69973 3.90626 6.84224 3.29558 8.08604 3.04817C9.32985 2.80076 10.6191 2.92774 11.7907 3.41305C12.9624 3.89836 13.9638 4.7202 14.6683 5.77465C15.3729 6.82909 15.749 8.06879 15.749 9.33696C15.7471 11.037 15.071 12.6668 13.8689 13.8689C12.6668 15.071 11.037 15.7471 9.33696 15.749Z" fill="#007BFF"/>
</svg>
