<svg width="24" height="26" viewBox="0 0 24 26" fill="none" xmlns="http://www.w3.org/2000/svg">
<path fill-rule="evenodd" clip-rule="evenodd" d="M17.8093 21.9058H15.5373V18.8153H12.3102V21.9058H9.96449L13.8859 25.5537L17.8093 21.9058ZM22.0421 7.0607H18.0891C17.6726 7.0607 17.0941 6.84024 16.8206 6.56988C16.5471 6.29951 16.3809 5.81078 16.3809 5.40315V1.44541H5.93372C5.90006 1.44541 5.87271 1.46205 5.85588 1.47869C5.82643 1.49741 5.81802 1.52236 5.81802 1.55772V19.8032C5.81802 19.8282 5.83695 19.8635 5.85168 19.8802C5.87061 19.9072 5.90637 19.9134 5.93162 19.9134H8.65806C8.44138 20.3627 8.28149 20.8472 8.18893 21.3505H5.48562C5.17848 21.3505 4.90499 21.2299 4.70093 21.0282C4.49897 20.8285 4.37695 20.5582 4.37695 20.2524V1.10642C4.37695 0.802777 4.50107 0.532412 4.70093 0.330678C4.90499 0.128943 5.18689 0.00831893 5.48562 0.00831893H17.1214C17.1467 0 17.1719 0 17.1992 0C17.3213 0 17.4475 0.0519933 17.5337 0.128943H17.5506C17.5695 0.139342 17.5779 0.147661 17.5948 0.162219L23.3317 5.90228C23.4284 5.99795 23.5 6.12897 23.5 6.27664C23.5 6.32031 23.4915 6.35359 23.4831 6.40142C23.4831 11.6465 23.4831 15.0094 23.4831 20.2545C23.4831 20.5582 23.359 20.8306 23.157 21.0303C22.953 21.2299 22.6795 21.3526 22.3723 21.3526H19.4334C19.3409 20.8472 19.1831 20.3647 18.9643 19.9155H21.9242C21.9579 19.9155 21.9579 19.8968 21.9768 19.8823C22.0042 19.8635 22.04 19.8282 22.04 19.8053C22.04 14.9283 22.0421 11.9356 22.0421 7.0607ZM17.6915 5.28876V1.68874L21.7917 5.79414H18.2027C18.0618 5.79414 17.9377 5.73383 17.8409 5.64648C17.7525 5.55913 17.6915 5.4281 17.6915 5.28876Z" fill="white"/>
<path fill-rule="evenodd" clip-rule="evenodd" d="M0.5 8.00903H19.2023V16.8916H0.5V8.00903Z" fill="white"/>
<path d="M3.0397 10.1117H5.5158C6.05436 10.1117 6.45828 10.2386 6.72545 10.4902C6.99263 10.7439 7.12727 11.1016 7.12727 11.5675C7.12727 12.0458 6.98211 12.4202 6.68759 12.6906C6.39517 12.9609 5.94917 13.094 5.3475 13.094H4.53336V14.8535H3.0376V10.1117H3.0397ZM4.53546 12.1332H4.89941C5.18762 12.1332 5.38958 12.0854 5.50318 11.9855C5.61889 11.8878 5.67779 11.763 5.67779 11.6091C5.67779 11.4594 5.6273 11.3325 5.52632 11.2306C5.42745 11.1266 5.23601 11.0746 4.95831 11.0746H4.53336V12.1332H4.53546ZM7.86147 10.1117H10.0725C10.508 10.1117 10.8614 10.1699 11.1286 10.2864C11.3958 10.4029 11.6167 10.5692 11.7934 10.7876C11.968 11.006 12.0942 11.2597 12.1741 11.5488C12.252 11.8379 12.292 12.1436 12.292 12.468C12.292 12.9755 12.233 13.3686 12.1152 13.6472C11.9995 13.9259 11.8354 14.1609 11.6272 14.3502C11.4189 14.5394 11.1959 14.6642 10.9582 14.7266C10.6321 14.8119 10.3355 14.8556 10.0704 14.8556H7.86147V10.1117ZM9.34882 11.1869V13.7762H9.71277C10.0241 13.7762 10.245 13.7429 10.3775 13.6743C10.508 13.6077 10.6111 13.4871 10.6868 13.3186C10.7604 13.1502 10.7983 12.8757 10.7983 12.4951C10.7983 11.9918 10.7162 11.6486 10.5501 11.4635C10.3839 11.2784 10.1062 11.1848 9.72118 11.1848H9.34882V11.1869ZM13.0156 10.1117H16.6972V11.1308H14.5114V11.9585H16.3774V12.9152H14.5114V14.8535H13.0156V10.1117Z" fill="#007BFF"/>
</svg>
