<svg width="17" height="12" viewBox="0 0 17 12" fill="none" xmlns="http://www.w3.org/2000/svg">
<g clip-path="url(#clip0_16:6642)">
<path d="M8.27402 8.27401L6.22702 6.48201L0.374023 11.498C0.596197 11.704 0.888059 11.8183 1.19102 11.818H15.358C15.6598 11.8184 15.9505 11.704 16.171 11.498L10.321 6.48001L8.27402 8.27401Z" fill="#007BFF"/>
<path d="M16.174 0.320007C15.9526 0.113405 15.6608 -0.00103149 15.358 7.00677e-06H1.18998C0.887373 -0.000113523 0.596168 0.115438 0.375977 0.323007L8.27598 7.09201L16.174 0.320007Z" fill="#007BFF"/>
<path d="M0 1.03799V10.86L5.713 6.00399L0 1.03799Z" fill="#007BFF"/>
<path d="M10.835 6.003L16.548 10.859V1.034L10.835 6.003Z" fill="#007BFF"/>
</g>
<defs>
<clipPath id="clip0_16:6642">
<rect width="16.548" height="11.82" fill="white"/>
</clipPath>
</defs>
</svg>
