<svg width="22" height="24" viewBox="0 0 22 24" fill="none" xmlns="http://www.w3.org/2000/svg">
<g clip-path="url(#clip0_8:1681)">
<path d="M8.77709 23.2334C10.244 23.2334 11.4331 22.0443 11.4331 20.5774C11.4331 19.1105 10.244 17.9214 8.77709 17.9214C7.31023 17.9214 6.12109 19.1105 6.12109 20.5774C6.12109 22.0443 7.31023 23.2334 8.77709 23.2334Z" fill="#FFFFFF"/>
<path d="M16.5286 17.9236C16.0033 17.9236 15.4897 18.0793 15.053 18.3712C14.6162 18.663 14.2758 19.0779 14.0747 19.5632C13.8737 20.0485 13.8211 20.5825 13.9236 21.0977C14.0261 21.613 14.279 22.0862 14.6505 22.4576C15.0219 22.8291 15.4952 23.0821 16.0104 23.1845C16.5256 23.287 17.0596 23.2344 17.545 23.0334C18.0303 22.8324 18.4451 22.492 18.7369 22.0552C19.0288 21.6184 19.1845 21.1049 19.1845 20.5796C19.1845 19.8752 18.9047 19.1996 18.4066 18.7015C17.9085 18.2034 17.233 17.9236 16.5286 17.9236Z" fill="#FFFFFF"/>
<path d="M21.0543 15.2115H7.20532L6.93432 13.6395H18.3193C18.483 13.64 18.643 13.5911 18.7784 13.4992C18.9138 13.4074 19.0183 13.2767 19.0783 13.1245L21.7883 6.29548C21.837 6.172 21.8547 6.03848 21.8398 5.90659C21.825 5.7747 21.7781 5.64845 21.7032 5.53887C21.6283 5.42928 21.5278 5.33968 21.4103 5.27791C21.2928 5.21614 21.162 5.18406 21.0293 5.18448H5.52932L4.87932 1.44448C4.84679 1.2525 4.74642 1.07857 4.59649 0.954328C4.44656 0.830087 4.25701 0.763785 4.06232 0.767481H0.945324C0.838559 0.767481 0.73284 0.788509 0.634202 0.829367C0.535565 0.870224 0.44594 0.930109 0.370446 1.0056C0.294952 1.0811 0.235067 1.17072 0.19421 1.26936C0.153353 1.368 0.132324 1.47372 0.132324 1.58048C0.132324 1.68725 0.153353 1.79296 0.19421 1.8916C0.235067 1.99024 0.294952 2.07986 0.370446 2.15536C0.44594 2.23085 0.535565 2.29074 0.634202 2.33159C0.73284 2.37245 0.838559 2.39348 0.945324 2.39348H3.38432L5.71932 16.1605C5.75155 16.352 5.85123 16.5256 6.00035 16.6499C6.14947 16.7743 6.33817 16.8412 6.53232 16.8385H21.0543C21.2699 16.8385 21.4767 16.7528 21.6292 16.6004C21.7817 16.4479 21.8673 16.2411 21.8673 16.0255C21.8673 15.8099 21.7817 15.6031 21.6292 15.4506C21.4767 15.2981 21.2699 15.2125 21.0543 15.2125V15.2115Z" fill="#FFFFFF"/>
</g>
<defs>
<clipPath id="clip0_8:1681">
<rect width="21.735" height="22.467" fill="white" transform="translate(0.132324 0.766602)"/>
</clipPath>
</defs>
</svg>
