<svg width="23" height="23" viewBox="0 0 23 23" fill="none" xmlns="http://www.w3.org/2000/svg">
<g clip-path="url(#clip0_57:2312)">
<path d="M2.50289 6.90107C3.84241 4.88953 5.90968 3.45451 8.28533 2.88713C8.3767 2.8655 8.46153 2.82281 8.53281 2.76256C8.60408 2.70232 8.65977 2.62626 8.69526 2.54067C8.73076 2.45508 8.74504 2.36241 8.73693 2.27032C8.72883 2.17822 8.69856 2.08935 8.64864 2.01103C8.33539 1.51509 7.92239 1.08735 7.43501 0.754069C6.94763 0.42079 6.39614 0.189004 5.8144 0.0729396C5.23266 -0.043125 4.63294 -0.0410196 4.05206 0.0791266C3.47117 0.199273 2.92138 0.434925 2.43643 0.771617C1.95148 1.10831 1.5416 1.53894 1.23195 2.03707C0.922306 2.5352 0.719427 3.09032 0.635767 3.66836C0.552108 4.2464 0.589434 4.83516 0.745453 5.3985C0.901473 5.96183 1.17289 6.48786 1.54306 6.9443C1.60159 7.01625 1.6766 7.07356 1.76195 7.11157C1.8473 7.14957 1.94057 7.16718 2.03416 7.16297C2.12775 7.15875 2.219 7.13283 2.30046 7.08731C2.38192 7.0418 2.45128 6.97798 2.50289 6.90107Z" fill="#007BFF"/>
<path d="M18.2419 1.96835e-06C17.5069 -0.000299579 16.7839 0.182682 16.1403 0.531846C15.4968 0.88101 14.9537 1.38496 14.5619 1.99659C14.5113 2.07512 14.4805 2.16443 14.4721 2.25706C14.4637 2.34969 14.4779 2.44295 14.5137 2.52905C14.5494 2.61515 14.6056 2.69159 14.6775 2.75197C14.7494 2.81236 14.8349 2.85494 14.927 2.87615C17.3071 3.42949 19.3837 4.85359 20.7346 6.85896C20.7869 6.93616 20.8571 7 20.9395 7.04521C21.0218 7.09042 21.1139 7.11571 21.2082 7.11897C21.3024 7.12224 21.3961 7.1034 21.4815 7.064C21.5669 7.0246 21.6415 6.96578 21.6992 6.89239C22.1946 6.258 22.4996 5.4998 22.5794 4.70369C22.6593 3.90758 22.5109 3.10538 22.151 2.38797C21.7912 1.67056 21.2342 1.06662 20.5433 0.644574C19.8524 0.222525 19.0552 -0.000764836 18.2419 1.96835e-06Z" fill="#007BFF"/>
<path d="M21.2387 13.1306C21.2365 10.8757 20.4141 8.69598 18.9202 6.98562C17.4263 5.27526 15.3595 4.14715 13.0936 3.80528C12.6116 3.72867 12.1244 3.6884 11.6362 3.68481C9.91479 3.69916 8.22797 4.1621 6.74764 5.02648C5.26732 5.89085 4.04639 7.12577 3.20927 8.6054C2.16531 10.4793 1.80085 12.6469 2.17584 14.7517C2.55083 16.8565 3.64293 18.773 5.2725 20.1861L4.4615 21.3072C4.37859 21.4219 4.31947 21.5517 4.28752 21.6889C4.25558 21.8262 4.25143 21.9683 4.27532 22.1071C4.32356 22.3875 4.48307 22.6376 4.71875 22.8023C4.95443 22.967 5.24698 23.0329 5.53204 22.9854C5.8171 22.938 6.07132 22.7811 6.23878 22.5493L7.04743 21.4288C8.45447 22.1829 10.0313 22.578 11.6336 22.578C13.2359 22.578 14.8127 22.1829 16.2198 21.4288L17.0284 22.5493C17.1959 22.7811 17.4501 22.938 17.7352 22.9854C18.0202 23.0329 18.3128 22.967 18.5484 22.8023C18.7841 22.6376 18.9436 22.3875 18.9919 22.1071C19.0401 21.8267 18.9731 21.539 18.8057 21.3072L17.9976 20.1861C19.0155 19.3033 19.8309 18.2177 20.3897 17.0012C20.9485 15.7848 21.2379 14.4654 21.2387 13.1306ZM11.6356 19.9354C10.2682 19.9354 8.93151 19.5366 7.79449 18.7894C6.65748 18.0422 5.77122 16.9802 5.24777 15.7376C4.72432 14.495 4.58718 13.1277 4.8537 11.8084C5.12021 10.4892 5.77841 9.27732 6.74508 8.326C7.71174 7.37468 8.94347 6.72665 10.2845 6.46383C11.6256 6.20101 13.0158 6.3352 14.2793 6.84945C15.5428 7.36369 16.623 8.2349 17.3832 9.35291C18.1434 10.4709 18.5495 11.7856 18.5502 13.1306C18.5483 14.9342 17.8194 16.6634 16.5231 17.939C15.2269 19.2147 13.4693 19.9326 11.6356 19.9354Z" fill="#007BFF"/>
<path d="M15.5107 14.7225L12.8738 13.1196C12.8192 12.8237 12.6572 12.5575 12.4179 12.3703L12.5386 9.11316C12.5447 8.91437 12.4707 8.72128 12.3327 8.57593C12.1947 8.43058 12.0039 8.34476 11.8018 8.33716C11.5998 8.32956 11.4029 8.40079 11.254 8.53534C11.1051 8.66989 11.0163 8.85686 11.0069 9.05552L10.8838 12.3196C10.6208 12.5001 10.4367 12.7717 10.3685 13.0799C10.3003 13.3882 10.3529 13.7104 10.5158 13.9822C10.6787 14.2539 10.9399 14.4552 11.2472 14.5456C11.5544 14.6361 11.8851 14.6091 12.173 14.4701L14.7044 16.0084C14.7901 16.0641 14.8863 16.1023 14.9873 16.1207C15.0883 16.1391 15.1921 16.1374 15.2924 16.1156C15.3927 16.0938 15.4875 16.0525 15.5713 15.994C15.655 15.9355 15.726 15.861 15.7799 15.775C15.8339 15.689 15.8697 15.5933 15.8853 15.4934C15.9009 15.3935 15.8959 15.2916 15.8707 15.1936C15.8455 15.0957 15.8005 15.0037 15.7385 14.9232C15.6764 14.8427 15.5986 14.7752 15.5096 14.7248L15.5107 14.7225Z" fill="#007BFF"/>
</g>
<defs>
<clipPath id="clip0_57:2312">
<rect width="22" height="23" fill="white" transform="translate(0.601562)"/>
</clipPath>
</defs>
</svg>
