<svg width="19" height="18" viewBox="0 0 19 18" fill="none" xmlns="http://www.w3.org/2000/svg">
<g clip-path="url(#clip0_211:251)">
<path d="M0.594299 6.56094L8.50237 15.8328L4.91535 6.56094H0.594299Z" fill="white"/>
<path d="M5.62024 6.56094L9.4419 16.4395L13.3387 6.56094H5.62024Z" fill="white"/>
<path d="M10.2935 16.0722L18.4054 6.56094H14.045L10.2935 16.0722Z" fill="white"/>
<path d="M15.3111 1.56012H10.1955L13.7031 5.63736L15.3111 1.56012Z" fill="white"/>
<path d="M13.1067 5.93591L9.49986 1.74365L5.89331 5.93591H13.1067Z" fill="white"/>
<path d="M8.80451 1.56012H3.68524L5.27341 5.66486L8.80451 1.56012Z" fill="white"/>
<path d="M3.13393 1.95575L0.5 5.93578H4.67345L3.13393 1.95575Z" fill="white"/>
<path d="M18.5 5.93588L15.8635 1.95178L14.2915 5.93588H18.5Z" fill="white"/>
</g>
<defs>
<clipPath id="clip0_211:251">
<rect width="18" height="17" fill="white" transform="translate(0.5 0.5)"/>
</clipPath>
</defs>
</svg>
