<svg width="22" height="20" viewBox="0 0 22 20" fill="none" xmlns="http://www.w3.org/2000/svg">
<g clip-path="url(#clip0_211:263)">
<path d="M10.8566 9.67846C12.1865 9.67846 13.3381 9.20275 14.279 8.26417C15.2199 7.32575 15.6969 6.17753 15.6969 4.85101C15.6969 3.52495 15.2199 2.37658 14.2789 1.43785C13.3378 0.499576 12.1863 0.0238647 10.8566 0.0238647C9.52652 0.0238647 8.37523 0.499576 7.4343 1.438C6.49337 2.37643 6.01624 3.5248 6.01624 4.85101C6.01624 6.17753 6.49337 7.3259 7.43445 8.26433C8.37554 9.2026 9.52698 9.67846 10.8566 9.67846Z" fill="#FFFFFF"/>
<path d="M19.3261 15.4357C19.299 15.0451 19.2441 14.6191 19.1633 14.1692C19.0817 13.716 18.9767 13.2875 18.8509 12.8959C18.7211 12.4912 18.5445 12.0915 18.3261 11.7084C18.0995 11.3108 17.8334 10.9646 17.5347 10.6798C17.2224 10.3817 16.84 10.1421 16.3978 9.96735C15.9572 9.79349 15.4688 9.70541 14.9465 9.70541C14.7413 9.70541 14.5429 9.78936 14.1598 10.0382C13.924 10.1915 13.6482 10.3689 13.3403 10.5651C13.077 10.7324 12.7204 10.8891 12.2799 11.031C11.8502 11.1697 11.4138 11.24 10.9831 11.24C10.5525 11.24 10.1163 11.1697 9.68604 11.031C9.24601 10.8893 8.88938 10.7325 8.62644 10.5652C8.32148 10.3709 8.0455 10.1935 7.80617 10.038C7.42348 9.78921 7.22493 9.70526 7.01979 9.70526C6.49727 9.70526 6.00909 9.79349 5.5686 9.96751C5.12673 10.142 4.7442 10.3816 4.43158 10.6799C4.13306 10.965 3.86674 11.311 3.64044 11.7084C3.42226 12.0915 3.24564 12.491 3.11562 12.8961C2.99005 13.2877 2.88503 13.716 2.80346 14.1692C2.72266 14.6185 2.66777 15.0447 2.64063 15.4361C2.61396 15.8196 2.60046 16.2177 2.60046 16.6197C2.60046 17.6659 2.93394 18.5129 3.59153 19.1375C4.241 19.7539 5.10036 20.0666 6.1454 20.0666H15.8218C16.8668 20.0666 17.7259 19.7541 18.3755 19.1375C19.0332 18.5133 19.3667 17.6662 19.3667 16.6195C19.3666 16.2157 19.3529 15.8173 19.3261 15.4357Z" fill="#FFFFFF"/>
</g>
<defs>
<clipPath id="clip0_211:263">
<rect width="20.0961" height="20" fill="white" transform="translate(0.951904)"/>
</clipPath>
</defs>
</svg>
