<svg width="22" height="22" viewBox="0 0 22 22" fill="none" xmlns="http://www.w3.org/2000/svg">
<g clip-path="url(#clip0_69_2331)">
<rect x="-9.23999" y="-9.23999" width="40.48" height="40.48" rx="2" fill="#007BFF"/>
<g clip-path="url(#clip1_69_2331)">
<path d="M24.1329 5.56196C24.0709 4.1593 23.844 3.19474 23.519 2.35934C23.1836 1.47228 22.6679 0.678217 21.992 0.0179589C21.3317 -0.652632 20.5323 -1.1734 19.6554 -1.50353C18.8152 -1.82849 17.8556 -2.05529 16.4526 -2.11729C15.0389 -2.18445 14.5903 -2.19995 11.0052 -2.19995C7.42011 -2.19995 6.97158 -2.18445 5.56348 -2.12246C4.16054 -2.06046 3.1958 -1.83366 2.36024 -1.50869C1.47249 -1.17392 0.678264 -0.657799 0.0178761 0.0174422C-0.652329 0.677701 -1.1732 1.47745 -1.50339 2.35418C-1.82842 3.19474 -2.05527 4.15361 -2.11727 5.55628C-2.18445 6.96979 -2.19995 7.41823 -2.19995 11.0026C-2.19995 14.587 -2.18445 15.0355 -2.12244 16.4433C-2.06043 17.846 -1.83359 18.8105 -1.50856 19.6459C-1.1732 20.533 -0.652329 21.327 0.0183928 21.9873C0.678781 22.6579 1.47817 23.1787 2.35507 23.5088C3.1958 23.8338 4.15537 24.0606 5.55831 24.1226C6.96641 24.1846 7.41546 24.2 11 24.2C14.5846 24.2 15.0337 24.1846 16.4418 24.1226C17.8447 24.0606 18.8095 23.8338 19.645 23.5088C21.4195 22.8227 22.8224 21.42 23.5087 19.6459C23.8337 18.8054 24.0605 17.846 24.1225 16.4433C24.1845 15.0355 24.2 14.5865 24.2 11.0026C24.2 7.41874 24.1949 6.96979 24.1329 5.56196ZM21.7554 16.3405C21.6985 17.63 21.482 18.3259 21.3012 18.7904C20.8573 19.9404 19.9447 20.8533 18.794 21.2971C18.3299 21.4774 17.6282 21.6944 16.3436 21.7507C14.951 21.8127 14.533 21.8282 11.0099 21.8282C7.48677 21.8282 7.06356 21.8127 5.67613 21.7507C4.38636 21.6939 3.69031 21.4774 3.22577 21.2971C2.65323 21.0858 2.13236 20.7505 1.70915 20.3119C1.27044 19.8836 0.935598 19.368 0.723737 18.7955C0.543396 18.3316 0.326367 17.63 0.270043 16.3457C0.208035 14.9533 0.192533 14.5354 0.192533 11.013C0.192533 7.49055 0.208035 7.06743 0.270043 5.68027C0.326884 4.39075 0.543396 3.69484 0.723737 3.23039C0.935081 2.65796 1.27044 2.13719 1.71432 1.71407C2.14217 1.27545 2.65788 0.940667 3.23094 0.729364C3.69496 0.549059 4.39669 0.332072 5.68129 0.275243C7.0739 0.213247 7.49193 0.197747 11.015 0.197747C14.5433 0.197747 14.9613 0.213247 16.3488 0.275243C17.6385 0.332072 18.3346 0.548542 18.7991 0.729364C19.3717 0.940667 19.8925 1.27596 20.3158 1.71407C20.7545 2.14236 21.0893 2.65796 21.3012 3.23039C21.4815 3.69433 21.6985 4.39592 21.7554 5.68027C21.8174 7.0726 21.8329 7.49055 21.8329 11.013C21.8329 14.5354 21.8169 14.9482 21.7554 16.3405Z" fill="white"/>
<path d="M11.0051 4.2207C7.26033 4.2207 4.22192 7.25799 4.22192 11.0026C4.22192 14.7471 7.26033 17.7844 11.0051 17.7844C14.7499 17.7844 17.7883 14.7471 17.7883 11.0026C17.7883 7.25799 14.7499 4.2207 11.0051 4.2207ZM11.0051 15.4017C8.57593 15.4017 6.60511 13.4318 6.60511 11.0026C6.60511 8.57334 8.57593 6.60342 11.0051 6.60342C13.4348 6.60342 15.4051 8.57334 15.4051 11.0026C15.4051 13.4318 13.4348 15.4017 11.0051 15.4017Z" fill="white"/>
<path d="M19.6405 3.95287C19.6405 4.82701 18.9315 5.53635 18.0567 5.53635C17.1824 5.53635 16.4729 4.82753 16.4729 3.95287C16.4729 3.07821 17.1819 2.36938 18.0567 2.36938C18.9315 2.3699 19.6405 3.07821 19.6405 3.95287Z" fill="white"/>
</g>
</g>
<defs>
<clipPath id="clip0_69_2331">
<rect width="22" height="22" rx="6" fill="white"/>
</clipPath>
<clipPath id="clip1_69_2331">
<rect width="26.4" height="26.4" fill="white" transform="translate(-2.19995 -2.19995)"/>
</clipPath>
</defs>
</svg>
