<svg width="20" height="20" viewBox="0 0 20 20" fill="none" xmlns="http://www.w3.org/2000/svg">
<path d="M19.1488 8.72814H17.3961H15.6827H13.9917H13.9524H13.1499H12.2296V10.4734H13.9505C13.5427 12.5048 11.747 14.0368 9.59402 14.0368C7.13987 14.0368 5.15147 12.0484 5.15147 9.59421C5.15147 7.14005 7.13987 5.15166 9.59402 5.15166C11.0718 5.15166 12.3793 5.87369 13.1873 6.98292H15.1608C14.1787 4.89352 12.0557 3.44385 9.59402 3.44385C6.19711 3.44385 3.44366 6.19729 3.44366 9.59421C3.44366 12.9911 6.19711 15.7446 9.59402 15.7446C12.6916 15.7446 15.2543 13.4531 15.6808 10.4734H16.2532H17.3942H19.1488C19.175 10.1834 19.1899 9.89162 19.1899 9.59421C19.1881 9.3024 19.1731 9.01247 19.1488 8.72814ZM14.031 9.366C14.0347 9.44269 14.0366 9.51751 14.0366 9.59421C14.0366 9.67277 14.0347 9.74946 14.031 9.82615C14.0328 9.74946 14.0366 9.67277 14.0366 9.59421C14.0366 9.51751 14.0328 9.44082 14.031 9.366Z" fill="white"/>
<path d="M1.74522 9.59422C1.74522 7.35892 2.68236 5.34247 4.18254 3.91337L3.05086 2.58154C1.1747 4.33237 0 6.82581 0 9.59422C0 12.6058 1.38795 15.2919 3.55965 17.0521L4.50615 15.5688C2.81704 14.1284 1.74522 11.9867 1.74522 9.59422Z" fill="white"/>
<path d="M9.59402 1.74522C13.0134 1.74522 15.9202 3.93189 16.9958 6.98275H18.8252C17.6879 2.95359 13.9879 0 9.59402 0C7.69168 0 5.92027 0.555553 4.42944 1.5114L5.57235 2.85445C6.74892 2.14926 8.12377 1.74522 9.59402 1.74522Z" fill="white"/>
<path d="M9.59405 17.4429C8.27905 17.4429 7.04075 17.1174 5.95209 16.5469L5.00934 18.0227C6.3711 18.7653 7.933 19.1881 9.59405 19.1881C13.9824 19.1881 17.6804 16.2401 18.8233 12.2166H16.9921C15.9128 15.2618 13.0097 17.4429 9.59405 17.4429Z" fill="white"/>
</svg>
