<svg width="35" height="36" viewBox="0 0 35 36" fill="none" xmlns="http://www.w3.org/2000/svg">
<rect width="35" height="36" rx="2" fill="#007BFF"/>
<g clip-path="url(#clip0_76:3164)">
<path d="M28.8549 13.1637C28.8013 11.9163 28.6052 11.0585 28.3241 10.3156C28.0342 9.52669 27.5883 8.8205 27.0039 8.23331C26.4329 7.63694 25.7417 7.17381 24.9836 6.88021C24.2571 6.59121 23.4274 6.38951 22.2144 6.33438C20.992 6.27465 20.6042 6.26086 17.5044 6.26086C14.4047 6.26086 14.0168 6.27465 12.7994 6.32978C11.5864 6.38492 10.7522 6.58662 10.0298 6.87562C9.26219 7.17335 8.57549 7.63234 8.0045 8.23285C7.42503 8.82004 6.97467 9.53128 6.68918 10.311C6.40815 11.0585 6.21201 11.9113 6.1584 13.1587C6.10032 14.4158 6.08691 14.8146 6.08691 18.0023C6.08691 21.19 6.10032 21.5888 6.15393 22.8408C6.20755 24.0883 6.40368 24.9461 6.68471 25.689C6.97467 26.4779 7.42503 27.1841 8.00495 27.7713C8.57594 28.3676 9.26711 28.8308 10.0253 29.1244C10.7522 29.4134 11.5819 29.6151 12.7949 29.6702C14.0124 29.7253 14.4006 29.7391 17.5 29.7391C20.5993 29.7391 20.9875 29.7253 22.205 29.6702C23.418 29.6151 24.2522 29.4134 24.9746 29.1244C26.5089 28.5142 27.7219 27.2668 28.3152 25.689C28.5962 24.9415 28.7924 24.0883 28.846 22.8408C28.8996 21.5888 28.913 21.1895 28.913 18.0023C28.913 14.815 28.9085 14.4158 28.8549 13.1637ZM26.7993 22.7494C26.7501 23.8962 26.5629 24.5151 26.4066 24.9282C26.0228 25.9509 25.2338 26.7628 24.2388 27.1574C23.8376 27.3178 23.2308 27.5108 22.1201 27.5608C20.9161 27.616 20.5546 27.6298 17.5084 27.6298C14.4623 27.6298 14.0964 27.616 12.8968 27.5608C11.7816 27.5103 11.1798 27.3178 10.7781 27.1574C10.2831 26.9695 9.83273 26.6713 9.46682 26.2812C9.0875 25.9004 8.79799 25.4418 8.61481 24.9327C8.45888 24.5202 8.27123 23.8962 8.22253 22.754C8.16892 21.5158 8.15551 21.1441 8.15551 18.0115C8.15551 14.8789 8.16892 14.5026 8.22253 13.269C8.27168 12.1222 8.45888 11.5033 8.61481 11.0902C8.79754 10.5811 9.0875 10.118 9.47129 9.74171C9.84122 9.35163 10.2871 9.0539 10.7826 8.86599C11.1838 8.70564 11.7905 8.51266 12.9012 8.46212C14.1053 8.40699 14.4668 8.3932 17.5129 8.3932C20.5635 8.3932 20.925 8.40699 22.1246 8.46212C23.2398 8.51266 23.8416 8.70518 24.2432 8.86599C24.7383 9.0539 25.1886 9.35209 25.5545 9.74171C25.9339 10.1226 26.2234 10.5811 26.4066 11.0902C26.5625 11.5028 26.7501 12.1268 26.7993 13.269C26.8529 14.5072 26.8663 14.8789 26.8663 18.0115C26.8663 21.1441 26.8524 21.5112 26.7993 22.7494Z" fill="#FAFAFA"/>
<path d="M17.5046 11.971C14.2667 11.971 11.6396 14.6722 11.6396 18.0023C11.6396 21.3324 14.2667 24.0336 17.5046 24.0336C20.7424 24.0336 23.3695 21.3324 23.3695 18.0023C23.3695 14.6722 20.7424 11.971 17.5046 11.971ZM17.5046 21.9146C15.4042 21.9146 13.7002 20.1627 13.7002 18.0023C13.7002 15.8419 15.4042 14.09 17.5046 14.09C19.6053 14.09 21.3089 15.8419 21.3089 18.0023C21.3089 20.1627 19.6053 21.9146 17.5046 21.9146Z" fill="#FAFAFA"/>
<path d="M24.9702 11.7326C24.9702 12.51 24.3572 13.1409 23.6008 13.1409C22.8449 13.1409 22.2314 12.5105 22.2314 11.7326C22.2314 10.9548 22.8444 10.3244 23.6008 10.3244C24.3572 10.3249 24.9702 10.9548 24.9702 11.7326Z" fill="#FAFAFA"/>
</g>
<defs>
<clipPath id="clip0_76:3164">
<rect width="22.8261" height="23.4783" fill="white" transform="translate(6.08691 6.26086)"/>
</clipPath>
</defs>
</svg>
