<svg width="37" height="36" viewBox="0 0 37 36" fill="none" xmlns="http://www.w3.org/2000/svg">
<rect width="37" height="36" rx="2" fill="#007BFF"/>
<path d="M24.9295 20.264C24.8787 18.8579 24.0835 17.9087 22.82 17.7459C21.0793 17.5225 19.8434 18.1745 19.3608 19.5806C19.1211 20.2781 19.0758 20.9989 19.0758 21.7237C19.0758 24.1103 19.078 26.4969 19.0714 28.8846C19.0714 29.0746 19.1653 29.294 18.9477 29.4486C18.6683 29.573 18.37 29.5012 18.0818 29.5032C16.8691 29.5133 15.6564 29.5103 14.4436 29.5042C14.2658 29.5032 14.0747 29.5609 13.9102 29.4456C13.7434 29.292 13.8064 29.0969 13.8053 28.9179C13.8019 24.0709 13.8097 19.2238 13.792 14.3777C13.7909 13.9491 13.9278 13.844 14.3785 13.8531C15.7204 13.8794 17.0635 13.8743 18.4065 13.8551C18.7699 13.8501 18.8858 13.9471 18.8693 14.2787C18.8417 14.8245 18.8615 15.3724 18.8615 15.9729C18.9654 15.9082 19.0173 15.891 19.0438 15.8566C20.981 13.3679 24.9306 12.6623 27.7437 14.3131C29.2436 15.1935 29.8246 16.5693 30.1117 18.0886C30.2973 19.0702 30.3359 20.0618 30.3348 21.0565C30.3326 23.6817 30.3359 26.3069 30.3304 28.9331C30.3304 29.108 30.4099 29.3091 30.21 29.4497C29.9681 29.5689 29.7075 29.5032 29.4568 29.5053C28.1557 29.5133 26.8557 29.5123 25.5547 29.5042C25.3868 29.5032 25.188 29.5912 25.0488 29.4203C25.0422 26.7577 25.0367 24.0941 25.0256 21.4315C25.0245 21.0989 25.0698 20.7613 24.945 20.4358C24.8566 20.3853 24.8732 20.3267 24.9295 20.264Z" fill="#FAFAFA"/>
<path d="M6.51102 13.4912C6.87801 13.3716 7.25859 13.4382 7.63238 13.4351C8.91459 13.4257 10.1968 13.4444 11.479 13.4236C11.8528 13.4174 11.9661 13.5213 11.9513 13.8603C11.9241 14.5173 11.9434 15.1754 11.9434 15.8325C11.9434 20.1584 11.9434 24.4834 11.9423 28.8093C11.9423 29.0162 11.9287 29.2242 11.9219 29.431C11.8845 29.5007 11.8245 29.5225 11.7407 29.5215C10.0303 29.5059 8.31992 29.5548 6.61069 29.4965C6.40454 29.3645 6.44192 29.1649 6.44192 28.9778C6.44192 23.948 6.44079 18.9192 6.44305 13.8894C6.44419 13.7563 6.39775 13.6108 6.51102 13.4912Z" fill="#FAFAFA"/>
<path d="M9.20351 6.26091C10.7359 6.26863 11.9732 7.49235 11.9523 8.97857C11.9314 10.4416 10.6733 11.6422 9.17469 11.6296C7.6383 11.6171 6.41396 10.3982 6.43483 8.90233C6.45471 7.42383 7.68203 6.25223 9.20351 6.26091Z" fill="#FAFAFA"/>
</svg>
