<?xml version="1.0" encoding="utf-8"?>
<!-- Generator: Adobe Illustrator 24.3.0, SVG Export Plug-In . SVG Version: 6.00 Build 0)  -->
<svg version="1.1" id="Camada_1" xmlns="http://www.w3.org/2000/svg" xmlns:xlink="http://www.w3.org/1999/xlink" x="0px" y="0px"
	 viewBox="0 0 299 196" style="enable-background:new 0 0 299 196;" xml:space="preserve">
<style type="text/css">
	.st0{fill:none;}
	.st1{fill:#17335C;}
	.st2{fill:#007BFF;}
	.st3{fill:url(#SVGID_1_);}
	.st4{fill:url(#SVGID_2_);}
	.st5{fill:url(#SVGID_3_);}
	.st6{fill:url(#SVGID_4_);}
	.st7{fill:url(#SVGID_5_);}
</style>
<g>
	<path class="st0" d="M46.9,136.8c-1,3.3-2,6.6-3,10.2c2.2-0.2,4.3-0.4,6.5-0.6c-1.1-3.3-2.1-6.5-3.2-9.7
		C47.1,136.7,47,136.8,46.9,136.8z"/>
	<path class="st0" d="M10.7,127.8c0,4.3,0,8.6,0,12.9c0.1,0.1,0.3,0.2,0.4,0.3c0.9-0.6,1.9-1.2,2.6-2c2.1-2.5,2.1-5.5,1.3-8.4
		C14.3,128.6,12.7,127.7,10.7,127.8z"/>
	<path class="st0" d="M139.1,129.2c-0.3,4.8-0.5,9.4-0.8,14.3c2.2-0.6,3.8-1.5,5-3.2c1.4-2,1.4-4.3,1.3-6.6
		C144.5,130.4,142.6,128.8,139.1,129.2z"/>
	<path class="st0" d="M258.6,132.5c-0.4-1.2-1.3-2-2.6-2.1c-1.3-0.1-2.4,0.4-3,1.6c-0.5,1-1,2.1-1.3,3.1c-0.9,3.8-1,7.5-0.6,11.3
		c0.2,2,0.8,3.9,1.4,5.9c0.4,1.3,1.4,2.2,3,2.2c1.5-0.1,2.3-1.1,2.9-2.3c0.1-0.3,0.2-0.4,0.3-0.7c1.1-3,1-6.4,1.2-9.9
		c-0.1-1.4,0-3-0.3-4.7C259.4,135.4,259,133.9,258.6,132.5z"/>
	<path class="st0" d="M167.5,136.7c-1,3.4-2,6.8-3,10.3c2.1-0.3,4.1-0.4,6.4-0.6c-1.1-3.3-2.1-6.5-3.2-9.8
		C167.7,136.6,167.6,136.6,167.5,136.7z"/>
	<path class="st1" d="M87,123.8c-0.9,0.2-1.2,0.6-1.1,1.5c0.3,3.7,0.5,7.4,0.7,11c0.1,1.7,0,3.4,0,5.5c-0.2-0.5-0.4-0.7-0.4-0.9
		c-2.2-5.4-5-10.5-8.3-15.2c-0.3-0.4-0.7-0.7-1.1-0.7c-3.3,0.2-6.4,0.9-9.3,2.4c-0.3,0.2-0.5,0.6-0.5,0.9c0,3-0.1,6,0.1,9.1
		c0.3,5.8,0.6,11.6,1,17.3c0.2,2.4,0.4,4.8,0.7,7.5c2.7-0.3,5.3-0.5,8-0.9c0-7.1,0-14,0-20.9c0.1,0,0.2,0,0.3-0.1
		c0.7,1.3,1.5,2.4,2.1,3.7c2.2,4.8,4.5,9.8,6.7,14.6c0.3,0.5,0.5,0.7,1.1,0.6c2.4-0.3,4.7-0.5,7.1-0.8c0.8-0.1,1.1-0.4,1.1-1.2
		c0.2-4.1,0.5-8.2,0.6-12.4c0.1-6.4,0.2-12.6,0.2-19c0.1-1.1-0.1-2.2-0.2-3.2C92.6,122.5,89.8,123.1,87,123.8z"/>
	<path class="st1" d="M22.7,147.6c-1-1.6-2.2-3.1-3.4-4.7c2-1.3,3.6-2.9,4.7-4.9c2.6-4.6,2.1-12.4-5.6-14.8c-2.6-0.8-5.3-1.1-8-0.8
		c-3.7,0.3-7,1.4-9.9,3.7C0.3,126.3,0,126.7,0,127c0.4,3.2,0.8,6.4,1,9.6c0.4,6.9,0.5,13.8,0.7,20.7c0,0.8,0,1.5,0,2.5
		c2.8,0.2,5.5,0.4,8.2,0.5c0.1-1.3,0.2-2.2,0.3-3.2c0.2-3.1,0.3-6.4,0.4-9.5c0.1-0.4,0.4-0.9,0.7-1c0.3-0.1,0.8,0.3,1,0.5
		c0.8,1.2,1.5,2.3,2.1,3.6c1.9,3.9,3.8,7.8,5.6,11.8c3-0.9,5.8-2.2,8.1-4.3c0.2-0.2,0.3-0.7,0.1-1C26.6,154.1,24.7,150.8,22.7,147.6
		z M13.7,139c-0.7,0.8-1.7,1.3-2.6,2c-0.1-0.1-0.3-0.2-0.4-0.3c0-4.3,0-8.6,0-12.9c2-0.1,3.6,0.8,4.2,2.8
		C15.8,133.5,15.7,136.5,13.7,139z"/>
	<path class="st1" d="M264.1,125.7c-5.5-3.3-14-1.5-18.4,3.9c-3.5,4.3-4.7,9.2-4.7,14.6c0,2.9,0.3,5.6,1.3,8.3
		c1.5,4.3,4.2,7.5,8.9,8.2c5.7,0.8,10.6-1.1,13.9-5.8c4.7-6.6,5.9-14.2,4.1-22.1C268.5,129.8,266.9,127.3,264.1,125.7z M258.6,151.5
		c-0.1,0.3-0.2,0.4-0.3,0.7c-0.5,1.3-1.3,2.2-2.9,2.3c-1.6,0.1-2.6-0.9-3-2.2c-0.6-2-1.3-3.9-1.4-5.9c-0.4-3.8-0.3-7.5,0.6-11.3
		c0.3-1.1,0.7-2.2,1.3-3.1c0.6-1.2,1.7-1.7,3-1.6c1.3,0.1,2.2,0.9,2.6,2.1c0.4,1.4,0.8,3,1,4.5c0.3,1.6,0.2,3.2,0.3,4.7
		C259.6,145.1,259.7,148.4,258.6,151.5z"/>
	<path class="st1" d="M179.1,140.9c-1.8-4.9-3.8-9.6-6.5-14c-0.3-0.4-0.9-0.8-1.3-0.9c-2.2-0.3-4.6-0.5-6.8-0.8
		c-0.6-0.1-0.9,0.2-1.1,0.8c-0.9,3.1-1.8,6.3-2.8,9.3c-2.4,7.3-5.3,14.3-8.9,21.1c-0.4,0.7-0.3,1.1,0.3,1.6c1.8,1.7,3.9,2.7,6.3,3.3
		c0.8,0.2,1.1-0.1,1.3-0.7c0.8-2.1,1.7-4.2,2.6-6.3c0.1-0.4,0.6-0.8,1-0.8c2.8-0.2,5.6-0.4,8.4-0.5c0.9-0.1,1.2,0.3,1.3,1.2
		c0.6,3.8,1.3,7.5,2,11.4c2.3,0,7.2-1.3,9.2-2.7c0.2-0.1,0.4-0.5,0.4-0.8c-0.3-1.4-0.5-3-0.8-4.4
		C182.5,151.9,181.1,146.4,179.1,140.9z M164.5,147c1-3.5,2-6.9,3-10.3c0.1-0.1,0.2-0.1,0.3-0.1c1.1,3.2,2.1,6.5,3.2,9.8
		C168.6,146.5,166.6,146.7,164.5,147z"/>
	<path class="st1" d="M62.2,153.8c-1.2-4.5-2.4-8.9-3.8-13.2c-1.6-4.8-3.7-9.3-6.4-13.6c-0.3-0.4-0.9-0.8-1.3-0.9
		c-2.2-0.3-4.4-0.5-6.6-0.8c-0.8-0.1-1.1,0.3-1.3,1.1c-0.9,3.1-1.8,6.3-2.9,9.4c-2.3,7.3-5.2,14.3-8.9,20.9c-0.4,0.6-0.3,1,0.2,1.4
		c1.9,1.8,4.2,2.9,6.7,3.4c0.2,0,0.7-0.3,0.8-0.5c1-2.2,1.9-4.3,2.7-6.5c0.3-0.6,0.5-1,1.3-1c2.4-0.1,4.7-0.3,7.2-0.4
		c0.7,0,1.5,0,2.3,0c0.4,2.2,0.9,4.1,1.3,6.2c0.3,2.1,0.5,4.1,0.8,6.3c0.3,0,0.5,0,1,0c2.8-0.4,5.5-1.1,8-2.3
		c0.7-0.4,0.9-0.8,0.7-1.5C63.3,159.1,62.9,156.4,62.2,153.8z M43.8,147c1.1-3.6,2.1-6.9,3-10.2c0.1,0,0.2-0.1,0.3-0.1
		c1.1,3.1,2.1,6.4,3.2,9.7C48.1,146.6,46.1,146.8,43.8,147z"/>
	<path class="st1" d="M206,123.5c-3.8-1.5-7.8-1.4-11.6,0.1c-2,0.8-3.7,2.1-4.8,3.9c-2.9,4.2-2.4,10.4,1.3,14.2
		c2,2.1,4.3,3.8,6.4,5.6c1.1,0.9,2.1,1.8,2.9,2.9c1.1,1.4,1.1,3.5,0.2,4.8c-0.8,1.1-2.5,1.6-4.1,1.2c-1.7-0.4-2.7-1.7-3.2-3.3
		c-0.4-1.5-0.7-3.1-1.1-4.8c-2.1,0.1-4.3,0.7-6.4,1.7c-0.7,0.2-0.9,0.6-0.8,1.3c0.2,1.9,0.8,3.7,1.9,5.3c3.2,4.8,9,6.9,14.9,5.6
		c7.4-1.8,11.2-8.7,8.3-16.1c-1-2.6-3.1-4.5-5.3-6.2c-1.8-1.4-3.5-3-5.2-4.5c-1.2-1.1-1.6-2.5-1.5-4c0.1-1.4,1-2.3,2.4-2.3
		c1.6,0,3,0.9,3.6,2.6c0.4,1,0.6,2.1,0.9,3.1c2.5-0.2,4.9-0.5,7.2-1.8c0.3-0.2,0.6-0.7,0.5-1C211.5,127.8,209.7,124.8,206,123.5z"/>
	<path class="st1" d="M298.6,131.2c-0.8-3.6-2.8-6.5-6.4-7.9c-2.5-1-5.1-1.2-7.8-0.8c-4.4,0.6-8,2.6-9.6,7
		c-1.7,4.6-0.7,8.7,2.5,12.2c1.5,1.7,3.4,3,5.2,4.6c1.6,1.4,3.6,2.6,4.4,4.8c0.9,2.5-0.2,5.2-3.3,5.1c-2.1-0.1-3.9-1.6-4.6-4.1
		c-0.3-1.3-0.4-2.6-0.7-4c-1.5-0.1-5.5,0.8-6.9,1.6c-0.3,0.2-0.4,0.6-0.4,1c0,1.8,0.6,3.5,1.6,5c3.1,4.9,9,7.3,15,5.9
		c5.4-1.3,9.1-5.6,9.3-10.8c0.2-4.2-1.4-7.5-4.6-10.2c-2.1-1.8-4.3-3.5-6.4-5.3c-1.3-1.1-2.1-2.6-2.1-4.4c0-1.6,1.1-2.6,2.7-2.5
		c1.6,0.1,2.8,1,3.3,2.6c0.4,1,0.6,2,0.9,3c2.6-0.2,5-0.5,7.2-1.8C298.5,132.1,298.7,131.5,298.6,131.2z"/>
	<path class="st1" d="M232.6,123.1c-2.3-0.7-4.7-0.8-7.1-0.5c-4.2,0.5-7.7,2.3-9.4,6.4c-1.8,4.2-1.3,8.3,1.6,11.9
		c1.4,1.8,3.4,3.2,5.1,4.8c1.6,1.5,3.3,2.9,4.7,4.5c1.1,1.3,1.1,3.5,0.2,4.7c-1,1.3-2.4,1.5-3.9,1.3c-1.6-0.3-2.7-1.4-3.2-2.9
		c-0.6-1.7-1-3.4-1.4-5.2c-1.3-0.2-5.7,0.9-6.7,1.6c-0.3,0.2-0.4,0.5-0.4,0.8c0.1,1.9,0.5,3.6,1.5,5.1c3.4,5.5,10.5,7.9,16.7,5.6
		c5.6-2.1,8.9-7.5,7.3-13.7c-0.7-3.1-2.6-5.4-5-7.4c-1.8-1.5-3.8-2.9-5.5-4.5c-0.8-0.8-1.4-2-1.9-3c-0.4-1.2-0.4-2.6,0.8-3.5
		c1.1-0.8,2.2-0.6,3.3,0c0.5,0.3,1,0.7,1.3,1.3c0.5,1.2,1,2.5,1.4,3.9c2.4-0.2,4.8-0.5,7-1.8c0.3-0.1,0.6-0.5,0.5-0.8
		C238.9,127.4,236.6,124.4,232.6,123.1z"/>
	<path class="st1" d="M154.5,131.5c-0.6-3.9-3.2-6.2-6.8-7.1c-6.3-1.6-12.3-0.5-18.3,1.9c-0.3,0.2-0.5,0.5-0.5,0.9
		c-0.1,1.1-0.2,2.2-0.2,3.4c0.2,7.1,0.3,14.1,0.6,21.1c0.2,3.4,0.6,6.8,1,10.2c0,0.3,0.4,0.8,0.5,0.8c2.6,0.3,5.1,0.4,7.8,0.7
		c0-1,0-1.5,0-2.2c-0.1-3.5-0.2-6.9-0.4-10.4c-0.1-0.8,0.3-1.2,1.1-1.4c4.8-1.5,9.1-3.9,12.3-7.9C154.1,138.6,155,135.2,154.5,131.5
		z M143.3,140.3c-1.2,1.7-2.8,2.6-5,3.2c0.3-4.8,0.5-9.5,0.8-14.3c3.5-0.4,5.4,1.2,5.5,4.4C144.8,136,144.8,138.3,143.3,140.3z"/>
	<path class="st1" d="M101.8,127.5c-0.4,0.2-0.6,0.8-0.6,1.2c0.4,5.9,1.1,11.8,1.4,17.8c0.3,4.7,0.2,9.4,0.3,14.2c0,0.3,0,0.4,0.1,1
		c2.5-0.3,4.9-0.6,7.3-1c0.2-0.1,0.5-0.4,0.5-0.6c0.2-1.5,0.4-3,0.4-4.6c0.2-5.4,0.4-10.7,0.5-16c0.1-4.2,0-8.4,0-12.6
		C108.3,126,104.9,125.8,101.8,127.5z"/>
</g>
<g>
	<path class="st0" d="M137.5,180.2c-0.2,0-0.6,0.3-0.7,0.5c-0.1,1.7-0.2,3.5-0.2,5.3c1.9-0.2,3-2.2,2.6-4.1
		C138.9,180.7,138.4,180.1,137.5,180.2z"/>
	<path class="st0" d="M175.6,183.2c-0.4,1.3-0.7,2.7-1.2,4.1c0.9-0.1,1.7-0.2,2.7-0.2c-0.5-1.4-0.9-2.7-1.3-3.9
		C175.7,183.2,175.6,183.2,175.6,183.2z"/>
	<path class="st0" d="M78.8,183.3c-0.3,1.3-0.7,2.6-1.2,4.1c1-0.1,1.7-0.2,2.7-0.2c-0.5-1.3-0.9-2.6-1.3-3.8
		C79,183.3,78.9,183.3,78.8,183.3z"/>
	<path class="st0" d="M205.6,180.6c-0.6,0.1-1.2,0.7-1.4,1.2c-0.9,2.5-0.9,5.1-0.1,7.5c0.2,0.7,0.7,1.3,1.4,1.1
		c0.5-0.2,1.1-0.7,1.2-1.2c0.4-1.2,0.5-2.6,0.7-3.7c-0.2-1.3-0.2-2.5-0.5-3.6C206.9,181.1,206.4,180.4,205.6,180.6z"/>
	<path class="st0" d="M160.8,179.6c0,1.7,0,3.5,0,5.3c1.7-0.7,2.2-2.1,1.9-3.8C162.5,180.1,161.9,179.6,160.8,179.6z"/>
	<path class="st0" d="M148.3,183.2c-0.4,1.3-0.7,2.6-1.2,4.1c1-0.1,1.7-0.2,2.7-0.2c-0.5-1.4-0.9-2.6-1.3-3.9
		C148.5,183.2,148.4,183.2,148.3,183.2z"/>
	<path class="st0" d="M120,183.2c-0.4,1.3-0.7,2.6-1.2,4.1c1-0.1,1.8-0.2,2.7-0.2c-0.5-1.3-0.9-2.6-1.3-3.8
		C120.1,183.2,120.1,183.2,120,183.2z"/>
	<path class="st0" d="M281.4,180.5c-0.8-0.1-1.2,0.6-1.5,1.2c-0.8,2.5-0.8,5,0,7.5c0.2,0.5,0.8,1.1,1.4,1.2c0.7,0.2,1.2-0.6,1.3-1.2
		c0.2-1.3,0.4-2.7,0.6-3.9c-0.2-1.2-0.3-2.3-0.5-3.4C282.6,181.2,282.2,180.6,281.4,180.5z"/>
	<path class="st0" d="M256.1,179.5c0,1.8,0,3.5,0,5.4c1.6-0.7,2.1-1.9,1.9-3.7C257.9,180.1,257.3,179.6,256.1,179.5z"/>
	<path class="st0" d="M36.8,180.5c-0.8-0.2-1.2,0.5-1.6,1.1c-0.1,0.2-0.2,0.3-0.2,0.6c-0.1,2-0.2,4-0.2,6c0,0.6,0.3,1.2,0.7,1.7
		c0.5,0.7,1.5,0.7,2-0.1c0.2-0.4,0.5-0.9,0.5-1.3c0.2-1.1,0.2-2.2,0.3-3.3c-0.1-1-0.2-2.1-0.3-3.1C37.9,181.3,37.5,180.7,36.8,180.5
		z"/>
	<path class="st0" d="M48.5,179.5c0,1.8,0,3.5,0,5.3c1.3-0.4,2.1-1.7,2-3.1C50.3,180.4,49.7,179.7,48.5,179.5z"/>
	<path class="st2" d="M70,177.7c-0.2,0-0.3,0-0.5-0.1c-0.7-0.2-1.3,0-1.7,0.7c-1,1.7-2,3.5-3,5.2c-0.8-1.4-1.7-2.8-2.6-4.4
		c-1.6-2.3-1.9-2.3-4.4-1c-0.6,0.3-0.9,0.7-0.8,1.4c0.2,2.2,0.2,4.4,0.3,6.5c0.2,1.9,0.3,3.7,0.6,5.6c0,0.2,0.3,0.7,0.6,0.7
		c1,0,2-0.2,3-0.2c-0.6-2.9-1-5.7-0.7-8.5c0.7,1.2,1.6,2.5,2.1,3.8c0.4,1,1.1,0.9,1.8,1c0.8,0,1.2-0.4,1.4-1.1
		c0.6-1.3,1.2-2.7,1.9-4c0.1,0,0.2,0.1,0.3,0.1c-0.2,3.3-0.2,6.6-0.4,10.1c1.1-0.2,2.1-0.3,3.1-0.5c0.6-0.2,0.7-0.5,0.7-1.1
		c-0.1-4.1-0.2-8.4-0.2-12.5C71.5,178.4,71,177.9,70,177.7z"/>
	<path class="st2" d="M221,178.7c0.1,1.4,0.2,2.7,0.2,4.1c0,0.8,0,1.6,0,2.5c-0.9-1.7-1.7-3.4-2.6-4.9c-1.3-2.2-1.9-2.4-4.4-1.3
		c-0.1,0.1-0.2,0.1-0.3,0.2c-0.6,0.2-0.7,0.7-0.7,1.2c0.2,3.2,0.3,6.5,0.5,9.7c0.1,1.1,0.2,2.1,0.3,3.2c0.9-0.1,1.7-0.2,2.4-0.2
		c0.7-0.1,0.7-0.3,0.7-0.9c0-2.2,0-4.4,0-6.5c0-0.3,0.1-0.6,0.1-0.9c0.2,0,0.2-0.1,0.3-0.1c0.9,1.8,1.8,3.6,2.6,5.4
		c1.1,2.3,1,2.2,3.5,1.9c0.8-0.1,1.1-0.5,1.1-1.2c0.1-2.9,0.2-5.7,0.3-8.6c0-1.5,0-3.1,0-4.9c-1.3,0.2-2.3,0.4-3.5,0.5
		C221.1,177.9,220.9,178.2,221,178.7z"/>
	<path class="st2" d="M15.2,177.7c-0.8,0.2-1,0.5-0.9,1.3c0.2,2,0.2,4,0.4,6c-0.1,0-0.2,0-0.2,0c-0.7-1.5-1.5-3-2.3-4.5
		c-1.3-2.3-2-2.5-4.5-1.4c-0.1,0.1-0.2,0.1-0.3,0.2c-0.6,0.2-0.7,0.7-0.7,1.3c0.2,2.8,0.2,5.6,0.4,8.4c0.1,1.4,0.2,2.9,0.4,4.4
		c0.7-0.1,1.5-0.2,2.1-0.2c0.8-0.1,1-0.4,1-1.2c0-2,0-4.1,0-6.1c0-0.3,0.1-0.7,0.1-1c0.4,0.2,0.6,0.3,0.7,0.6
		c0.9,1.9,1.9,3.7,2.7,5.6c0.3,0.7,0.7,1.3,1.7,1.1c0.7-0.2,1.5-0.2,2.3-0.3c0.2-5,0.7-9.7,0.1-14.7
		C17.1,177.4,16.1,177.5,15.2,177.7z"/>
	<path class="st2" d="M259.7,185.6c0.3-0.4,0.8-0.7,1.2-1.2c2.2-2.6,1-6.1-2.3-6.9c-2-0.4-3.8-0.2-5.6,0.7c-1,0.4-1.3,1.1-1.2,2.2
		c0.2,3.7,0.4,7.5,0.6,11.3c0.1,0.3,0.1,0.6,0.1,1c1.1,0.1,2.1,0.2,3.2,0.2c0.2-2,0.3-3.7,0.5-5.5c0.2,0,0.2,0,0.4-0.2
		c1.6,1.9,2.3,4.3,3.5,6.6c0.8-0.4,1.7-0.8,2.5-1.2c0.8-0.4,0.9-1,0.4-1.7C261.8,189.1,260.8,187.3,259.7,185.6z M256.1,184.9
		c0-1.9,0-3.6,0-5.4c1.2,0.1,1.7,0.6,1.9,1.7C258.3,183,257.7,184.3,256.1,184.9z"/>
	<path class="st2" d="M53.1,184.6c2.2-2.4,1.4-6-1.7-7c-2.3-0.7-4.5-0.4-6.6,0.7c-0.7,0.4-0.8,0.9-0.7,1.6c0.2,3.9,0.5,7.7,0.7,11.5
		c0,0.3,0,0.7,0,1.1c1.1,0.1,2.1,0.2,3.2,0.2c0.1-0.4,0.2-0.8,0.2-1.2c0.1-1.2,0.2-2.4,0.2-3.6c0-0.2,0.2-0.6,0.2-0.8
		c0.2,0.2,0.5,0.4,0.7,0.7c0.8,1.7,1.7,3.4,2.5,5.1c0.2,0.5,0.5,0.7,1,0.5c1-0.4,1.9-1,3.1-1.6c-1.3-2.2-2.6-4.2-3.9-6.2
		C52.4,185.3,52.8,185,53.1,184.6z M48.5,184.8c0-1.8,0-3.5,0-5.3c1.2,0.2,1.8,0.8,2,2.2C50.6,183.2,49.8,184.4,48.5,184.8z"/>
	<path class="st2" d="M166.9,189.8c-0.9-1.4-1.8-2.7-2.7-4.1c0.3-0.2,0.7-0.5,1-0.8c2.6-2.5,1.7-6.3-1.6-7.2
		c-2.3-0.6-4.5-0.2-6.5,0.9c-0.5,0.2-0.7,0.7-0.7,1.2c0.2,4.2,0.4,8.4,0.7,12.6c0,0.1,0.1,0.1,0.2,0.2c1,0.1,2,0.2,3.1,0.2
		c0.1-1.7,0.2-3.1,0.2-4.6c0.1-0.3,0.2-0.7,0.3-1c0.2,0.2,0.6,0.4,0.7,0.7c1,1.9,2,3.8,3,5.8c0.6-0.2,1.3-0.5,1.8-0.8
		c1.5-0.8,1.5-1,0.7-2.5C167.1,190.2,167.1,190,166.9,189.8z M160.8,184.9c0-1.8,0-3.6,0-5.3c1.1,0,1.7,0.5,1.9,1.5
		C163,182.8,162.4,184.3,160.8,184.9z"/>
	<path class="st2" d="M246,178.9c-0.8,0.2-1,0.5-0.8,1.3c0.7,3.3,1,6.6,0.2,10c-0.2,0.5-0.6,0.9-0.9,1.4c-0.2-0.5-0.8-0.9-0.8-1.4
		c-0.1-2.1-0.1-4.1-0.1-6.1c0-1.2,0.2-2.6,0.2-3.8c-2.8-0.9-3.7-0.3-4,2.5c0,0.1-0.1,0.2-0.1,0.2c-0.4,2.6-0.7,5.2,0.1,7.9
		c0.7,2.3,2.6,3.6,4.9,3.2c2.4-0.3,4.1-2.1,4.7-4.8c0.6-2.6,0.6-5.3,0.2-7.9C249.3,178.2,249.1,178.1,246,178.9z"/>
	<path class="st2" d="M39,178.2c-2.2-0.6-4.3-0.2-5.9,1.5c-2.6,2.5-3.2,7.5-1.4,10.8c0.9,1.7,2.3,2.5,4.2,2.4c1.7,0,3.1-0.7,4.2-2
		c1.7-2,2.2-4.3,2.2-6.8c0-0.5,0-1,0-1.5C42.1,180.4,40.8,178.6,39,178.2z M38,188.5c0,0.4-0.2,0.9-0.5,1.3c-0.5,0.8-1.5,0.8-2,0.1
		c-0.3-0.5-0.7-1.2-0.7-1.7c0-2,0.1-4,0.2-6c0-0.2,0.1-0.4,0.2-0.6c0.3-0.6,0.7-1.2,1.6-1.1c0.7,0.2,1.2,0.7,1.2,1.5
		c0.2,1.1,0.2,2.2,0.3,3.1C38.3,186.3,38.2,187.4,38,188.5z"/>
	<path class="st2" d="M208,178.3c-2.5-0.6-4.6-0.1-6.3,1.9c-2.2,2.6-2.4,5.6-1.7,8.8c0.2,0.9,0.7,1.8,1.3,2.6
		c1.8,2.2,5.6,1.8,7.7-0.6c1.7-2,2.1-4.4,2.3-6.8c0-0.6,0-1.1,0-1.5C211.2,180.4,209.9,178.7,208,178.3z M206.8,189.1
		c-0.2,0.5-0.7,1.1-1.2,1.2c-0.7,0.2-1.2-0.4-1.4-1.1c-0.8-2.5-0.8-5,0.1-7.5c0.2-0.5,0.8-1.1,1.4-1.2c0.7-0.2,1.2,0.5,1.3,1.2
		c0.2,1.2,0.3,2.3,0.5,3.6C207.3,186.6,207.2,187.9,206.8,189.1z"/>
	<path class="st2" d="M285.8,179.6c-1.6-2.2-5.5-2.2-7.7-0.2c-2.1,1.7-2.6,4.1-2.7,7c0.1,0.5,0.2,1.3,0.2,2.1
		c0.6,2.9,2.4,4.6,4.9,4.5c1.8,0,3.4-0.7,4.5-2.2c1.7-2.3,2.5-5.1,2.1-7.9C286.9,181.8,286.5,180.5,285.8,179.6z M282.7,189.1
		c-0.2,0.7-0.6,1.4-1.3,1.2c-0.6-0.1-1.2-0.7-1.4-1.2c-0.8-2.5-0.8-5,0-7.5c0.2-0.7,0.7-1.3,1.5-1.2c0.8,0.1,1.2,0.7,1.3,1.3
		c0.2,1.1,0.3,2.2,0.5,3.4C283.1,186.5,282.9,187.8,282.7,189.1z"/>
	<path class="st2" d="M177.7,179.6c-0.2-0.4-0.8-0.7-1.2-0.8c-0.5-0.2-1.1-0.2-1.7-0.2c-0.7-0.2-1,0.1-1.2,0.8
		c-1.1,3.9-2.3,7.7-4.3,11.2c-0.5,1-0.2,1.5,0.6,1.9c0.3,0.2,0.7,0.3,1.1,0.5c0.8,0.4,1.2,0.2,1.5-0.7c1-2.5,1-2.5,3.7-2.5
		c0,0,0.1,0,0.2,0c1-0.2,1.5,0.3,1.6,1.3c0.2,1.2,0.4,2.5,0.7,3.9c1.4-0.4,2.6-0.7,3.9-1.2c-0.2-1.2-0.4-2.2-0.7-3.2
		C180.9,186.7,179.7,183,177.7,179.6z M174.3,187.3c0.5-1.5,0.8-2.8,1.2-4.1c0,0,0.1,0,0.2,0c0.4,1.2,0.8,2.5,1.3,3.9
		C176.1,187.2,175.2,187.2,174.3,187.3z"/>
	<path class="st2" d="M81.7,180.4c-0.7-1.4-1.6-1.9-3-2c-1.1-0.1-1.6,0.2-1.8,1.2c-1.1,4.1-2.6,8-4.7,12c0.8,0.5,1.6,0.9,2.2,1.2
		c0.7,0.4,1.1,0.2,1.3-0.6c1-2.6,1.1-2.6,3.8-2.6c0.2,0,0.4,0,0.7,0c0.6-0.1,0.8,0.2,0.9,0.7c0.2,1.4,0.6,2.8,0.8,4.3
		c0.7-0.1,1.2-0.2,1.7-0.3c2.1-0.5,2.1-0.7,1.7-2.7C84.7,187.9,83.4,184.1,81.7,180.4z M77.7,187.3c0.4-1.5,0.8-2.7,1.2-4.1
		c0.1,0,0.2,0,0.2,0c0.4,1.2,0.8,2.5,1.3,3.8C79.4,187.2,78.7,187.2,77.7,187.3z"/>
	<path class="st2" d="M147.6,178.5c-0.7,0-1,0.2-1.2,0.8c-1,3.8-2.3,7.4-4,10.8c-0.7,1.6-0.7,1.8,1,2.6c0.1,0.1,0.2,0.1,0.3,0.2
		c0.7,0.3,1.3,0.3,1.5-0.6c0.4-2.3,1.9-2.7,4-2.6c1.1,0.1,1.4,0.5,1.6,1.4c0.2,1.2,0.4,2.5,0.7,3.9c1.3-0.4,2.5-0.7,3.8-1.2
		c-0.7-4.6-2-8.9-4-13.1C150.5,179,149.4,178.5,147.6,178.5z M147.2,187.3c0.4-1.5,0.7-2.8,1.2-4.1c0.1,0,0.2,0,0.2,0
		c0.4,1.2,0.8,2.5,1.3,3.9C148.9,187.2,148.1,187.2,147.2,187.3z"/>
	<path class="st2" d="M123,180.8c-0.7-1.6-1.8-2.2-3.5-2.2c-0.8,0-1.2,0.2-1.4,1c-1,4-2.5,7.8-4.4,11.5c-0.1,0.2-0.2,0.6-0.2,0.6
		c0.9,0.6,1.7,1.1,2.6,1.5c0.1,0.1,0.7-0.7,0.9-1.2c0.2-0.3,0.3-0.7,0.4-1.1c0.1-0.7,0.5-0.9,1.1-0.9c1-0.1,1.9-0.1,2.8-0.1
		c0.5,0,0.7,0.2,0.8,0.7c0.2,1.4,0.5,2.8,0.8,4.5c1.1-0.3,2-0.6,3.1-0.7c0.6-0.2,0.7-0.6,0.7-1.2C126.1,188.8,124.8,184.7,123,180.8
		z M118.8,187.2c0.4-1.4,0.7-2.7,1.2-4.1c0.1,0,0.2,0,0.2,0c0.4,1.2,0.8,2.5,1.3,3.8C120.6,187.1,119.8,187.2,118.8,187.2z"/>
	<path class="st2" d="M293.6,179.9c0.8-0.2,1.4,0.1,1.8,0.8c0.2,0.4,0.2,0.9,0.5,1.5c0.7-0.2,1.5-0.3,2.4-0.6
		c0.7-0.1,0.7-0.4,0.6-1.1c-0.6-1.9-2.1-3-4.5-3.1c-3.6-0.2-5.9,2.5-5.2,5.7c0.4,1.6,1.5,2.6,2.7,3.6c0.7,0.5,1.3,1,1.9,1.6
		c0.6,0.6,0.9,1.3,0.5,2.1c-0.2,0.4-0.8,0.7-1.3,0.8c-0.9,0.2-1.5-0.4-1.8-1.2c-0.3-0.7-0.4-1.4-0.7-2.2c-0.7,0.2-1.2,0.3-1.9,0.5
		c-0.7,0.2-1,0.6-0.7,1.3c0.8,2.7,3.7,4.4,6.7,3.7c3.2-0.7,4.9-4.3,3-7.1c-0.7-1.2-2-1.9-3-2.9c-0.6-0.5-1.1-1.1-1.4-1.7
		C292.8,181,292.8,180.2,293.6,179.9z"/>
	<path class="st2" d="M270.3,177.5c-1.9-0.1-3.7,0.4-4.8,2.2c-1,1.7-0.9,3.5,0.2,5.1c0.5,0.7,1.2,1.3,1.9,2c0.7,0.7,1.6,1.3,2.2,2.1
		c0.7,0.7,0.5,1.8-0.2,2.3c-0.7,0.5-1.7,0.3-2.3-0.4c-0.2-0.3-0.4-0.7-0.5-1.1c-0.2-0.5-0.2-1.1-0.3-1.7c-0.7,0.2-1.2,0.2-1.8,0.3
		c-1.2,0.4-1.3,0.7-0.9,1.9c0.5,1.4,1.5,2.3,2.9,2.9c2.6,1,5.5,0.2,6.8-1.9c1.2-2.1,0.6-4.6-1.7-6.5c-0.7-0.6-1.4-1.1-2-1.7
		c-0.3-0.3-0.7-0.8-0.9-1.3c-0.3-0.6-0.2-1.2,0.5-1.6c0.7-0.3,1.3-0.1,1.7,0.6c0.2,0.4,0.4,1,0.7,1.7c0.7-0.2,1.6-0.3,2.3-0.5
		c0.6-0.2,0.7-0.5,0.5-1.1C274.1,178.7,272.7,177.6,270.3,177.5z"/>
	<path class="st2" d="M140,178.2c-2.2-0.4-4.5-0.1-6.6,0.7c-0.2,0.1-0.6,0.6-0.6,0.8c0.2,4.6,0.3,9.1,0.6,13.7
		c0,0.2,0.2,0.5,0.4,0.5c0.9,0.1,1.8,0.2,2.9,0.2c-0.1-1.7-0.2-3.1-0.2-4.6c0-0.7,0.2-1,0.9-1.2c1.9-0.6,3.5-1.6,4.7-3.1
		C143.8,183,144.1,179,140,178.2z M136.6,186c0.1-1.8,0.2-3.6,0.2-5.3c0.1-0.2,0.4-0.5,0.7-0.5c0.9-0.1,1.4,0.5,1.7,1.7
		C139.5,183.8,138.5,185.8,136.6,186z"/>
	<path class="st2" d="M22.1,194.4c0.9-0.1,1.7-0.2,2.6-0.2c0.7-0.1,0.9-0.4,0.9-1.1c0-1.7,0.2-3.2,0.2-4.8c0-0.7,0.3-1,1-1
		c0.8,0,1.7,0,2.7,0c-0.1-1.2-0.2-2.1-0.2-3.1c-1.2,0.2-2.3,0.2-3.4,0.3c-0.1-0.9-0.1-1.7-0.2-2.6c0-0.6,0.2-0.8,0.8-0.9
		c1.2-0.1,2.6-0.2,3.9-0.4c0-1.1,0-2.2,0-3.2c-3.2,0.4-6.4,0.8-9.4,1.2C21.3,183.9,21.7,189.1,22.1,194.4z"/>
	<path class="st2" d="M112.8,188.6c-0.8-0.2-1.6-0.3-2.4-0.4c0,0.7,0.1,1.2-0.2,1.6c-0.3,0.5-0.8,1.2-1.3,1.2
		c-0.4,0.1-1.2-0.3-1.5-0.7c-0.3-0.5-0.5-1.2-0.6-1.8c-0.2-2.2-0.3-4.3,0.8-6.3c0.2-0.3,0.8-0.7,1.2-0.7c0.3,0.1,0.7,0.6,0.9,1
		c0.2,0.5,0.2,1.1,0.3,1.7c1.2-0.2,2.4-0.5,3.6-0.7c-0.6-3.9-2.8-4.7-5.5-4.3c-1.5,0.2-2.6,1-3.6,2.1c-1.9,2.2-2.5,4.9-2.1,7.7
		c0.1,0.8,0.4,1.7,0.8,2.3c1.2,1.9,3.4,2.6,6,2.1c2-0.4,3.3-1.5,3.9-3.4C113.2,189.4,113.5,188.8,112.8,188.6z"/>
	<path class="st2" d="M193,181.9c0.2-0.2,0.7-0.6,1.1-0.5c0.3,0.1,0.7,0.5,0.8,0.8c0.2,0.5,0.2,1.2,0.4,1.9c1.2-0.2,2.3-0.4,3.8-0.7
		c-0.6-1.2-0.9-2.2-1.3-3.1c-1.4-1.7-4.4-1.8-6.5-0.3c-3,2.1-4,6-3.4,9.3c0.3,1.7,1.1,3,2.7,3.6c1.9,0.7,3.9,0.7,5.7-0.3
		c0.6-0.4,1.2-0.9,1.6-1.6c0.3-0.7,0.7-1.7,0.5-2.3c-0.1-0.3-1.3-0.4-2.1-0.6c-0.2,0-0.3,0.1-0.6,0.1c-0.1,0.5-0.1,1-0.2,1.4
		c-0.2,0.7-0.7,1.4-1.4,1.3c-0.6,0-1.2-0.5-1.7-0.8c-0.2-0.2-0.3-0.6-0.3-0.9c-0.1-1.6-0.2-3.1-0.1-4.7
		C192.2,183.6,192.6,182.7,193,181.9z"/>
	<path class="st2" d="M235,179.1c-2.1-0.3-3.9,0.2-5.4,1.7c-2.5,2.5-3,5.5-2.3,8.9c0.3,2,1.8,3.5,3.8,3.6c1.1,0.2,2.2,0.1,3.3-0.2
		c1.9-0.4,3.2-2,3.4-3.8c0.1-0.2-0.2-0.7-0.3-0.7c-0.8-0.2-1.6-0.3-2.3-0.4c-0.2,0.7-0.2,1.3-0.4,1.7c-0.2,0.5-0.8,1.1-1.3,1.1
		c-0.5,0.1-1.1-0.4-1.5-0.8c-0.2-0.2-0.3-0.7-0.4-1.1c-0.4-2.2-0.4-4.3,0.4-6.4c0.1-0.3,0.2-0.6,0.4-0.8c0.7-0.8,1.5-0.7,1.9,0.2
		c0.2,0.6,0.3,1.2,0.6,2.1c0.9-0.2,1.9-0.3,2.9-0.6c0.2-0.1,0.4-0.4,0.4-0.7C238.2,181.2,236.6,179.4,235,179.1z"/>
	<path class="st2" d="M93.6,176.9c-2.6,0.2-5.2,0.4-7.8,0.7c-2.5,0.3-2.6,0.7-1.7,3c0.1,0.1,0.1,0.1,0.2,0.2c0.9-0.1,1.8-0.2,3-0.2
		c0.2,4,0.4,7.8,0.6,11.8c1.2-0.2,2.4-0.3,3.6-0.5c0-3.9,0-7.7,0-11.5c0.4-0.1,0.7-0.1,0.9-0.1c2.2-0.1,2.2-0.1,2.1-2.3
		C94.6,177.1,94.4,176.8,93.6,176.9z"/>
	<path class="st2" d="M3.6,179.4c-1.1-0.3-2.2-0.2-3.2,0.3c-0.2,0.2-0.4,0.5-0.4,0.7c0.2,4.1,0.4,8.2,0.7,12.3c0,0.2,0,0.4,0.1,0.7
		c0.9-0.1,1.8-0.2,2.6-0.3c0.2-0.1,0.4-0.4,0.4-0.7c0.1-4.1,0.2-8.2,0.3-12.3C4.2,179.9,3.9,179.5,3.6,179.4z"/>
	<path class="st2" d="M98.3,179.1c-0.4,0.1-0.9,0.2-1.4,0.3c-0.7,0.2-0.9,0.7-0.8,1.4c0.2,2.4,0.5,4.9,0.6,7.3c0.1,1.7,0,3.4,0,5.3
		c1-0.1,1.7-0.2,2.3-0.2c0.7-0.1,1-0.4,1-1.1c0.1-3.7,0.2-7.5,0.3-11.2C100.3,179.4,100,179,98.3,179.1z"/>
	<path class="st2" d="M80.3,177.3c0.7-0.7,1-1.8,1.6-3.1c-1.3-0.1-2.2-0.1-3.1-0.2c-0.2,1.2-0.4,2.2-0.7,3.3
		C78.9,177.4,79.9,177.7,80.3,177.3z"/>
</g>
<g>
	<path class="st0" d="M168.4,15.9c-1.4,0-2.6,1.2-2.6,2.6c0,1.4,1.2,2.6,2.6,2.6c1.4,0,2.5-1.2,2.5-2.6
		C171,17,169.9,15.9,168.4,15.9z"/>
	<path class="st0" d="M129,35.6c1.4,0,2.6-1.2,2.6-2.6c0-1.4-1.2-2.6-2.6-2.6c-1.4,0-2.6,1.1-2.6,2.6
		C126.4,34.4,127.5,35.6,129,35.6z"/>
	<path class="st0" d="M129,64.6c1.4,0,2.6-1.2,2.6-2.6c0-1.4-1.2-2.6-2.6-2.6c-1.4,0-2.6,1.1-2.6,2.6
		C126.4,63.4,127.6,64.6,129,64.6z"/>
	<path class="st0" d="M168.4,44.9c-1.4,0-2.6,1.2-2.6,2.6c0,1.4,1.2,2.6,2.6,2.6c1.5,0,2.6-1.2,2.6-2.6
		C171,46,169.9,44.9,168.4,44.9z"/>
	
		<linearGradient id="SVGID_1_" gradientUnits="userSpaceOnUse" x1="234.4699" y1="125.4256" x2="105.2553" y2="209.5556" gradientTransform="matrix(1 0 0 -1 0 195.8898)">
		<stop  offset="1.000000e-04" style="stop-color:#751B7E"/>
		<stop  offset="0.9999" style="stop-color:#2A3461"/>
		<stop  offset="1" style="stop-color:#2B3461"/>
	</linearGradient>
	<path class="st3" d="M96.5,23.6c0-3.9,0-7.7,0-11.6c0-0.5,0.1-0.9,0.3-1.3C97.4,9.5,98.4,9,99.7,9c19.7,0,39.5,0,59.2,0
		c13.1,0,26.3,0,39.4,0c1.9,0,3.1,1.2,3.1,3c0,1,0,1.9,0,2.9c0,0.7,0,0.7-0.7,0.7c-8.7,0-17.3,0-26,0c-0.7,0-1.1-0.2-1.5-0.8
		c-1.6-2.4-4.8-3-7.4-1.8c-2.5,1.3-3.9,4.3-3.1,6.9c0.7,2.4,2.3,3.9,4.8,4.3c2.4,0.4,4.4-0.5,5.8-2.5c0.3-0.4,0.5-0.5,1-0.5
		c15.4,0,30.8,0,46.1,0c0.3,0,0.5,0,0.7,0c1.9-0.1,3.1-1.6,2.8-3.4c-0.3-1.3-1.4-2.3-2.8-2.3c-3.3,0-6.7,0-10.1,0
		c-0.7,0-0.7,0-0.7-0.7c0-1.1,0-2.2,0-3.4c0-1.5-0.3-3-0.9-4.3c-2.2-4.7-5.9-7.2-11.1-7.2c-32.9,0-65.8,0-98.7,0
		c-6.7,0-11.9,5.2-11.9,12c0,3.9,0,7.8,0,11.7c0,0.2,0,0.4,0,0.6c3,0,6,0,8.9,0C96.6,24,96.6,23.8,96.5,23.6z M168.5,21.1
		c-1.4,0-2.6-1.2-2.6-2.6c0-1.4,1.2-2.6,2.6-2.6c1.4,0,2.5,1.1,2.5,2.6C171,19.9,169.9,21.1,168.5,21.1z"/>
	
		<linearGradient id="SVGID_2_" gradientUnits="userSpaceOnUse" x1="211.3182" y1="89.8671" x2="82.1036" y2="173.9972" gradientTransform="matrix(1 0 0 -1 0 195.8898)">
		<stop  offset="1.000000e-04" style="stop-color:#751B7E"/>
		<stop  offset="0.9999" style="stop-color:#2A3461"/>
		<stop  offset="1" style="stop-color:#2B3461"/>
	</linearGradient>
	<path class="st4" d="M201.4,56.9c0,3.6,0,7.3,0,11c0,0.6-0.2,1.3-0.5,1.8c-0.6,1.1-1.6,1.4-2.8,1.4c-32.8,0-65.6,0-98.3,0
		c-0.3,0-0.5,0-0.8,0c-1.1-0.1-2.3-1-2.3-2.1c-0.1-1.3,0-2.7,0-4.1c0.2,0,0.4,0,0.7,0c8.6,0,17.2,0,25.8,0c0.5,0,0.8,0.1,1,0.5
		c1.6,2.4,4.6,3.2,7.2,2.1c2.6-1,4-3.8,3.5-6.6c-0.5-2.4-2.2-4.3-4.5-4.8c-2.4-0.5-4.8,0.4-6.2,2.4c-0.3,0.5-0.6,0.6-1.1,0.6
		c-15.2,0-30.4,0-45.6,0c-0.3,0-0.6,0-0.9,0c-1.9,0.2-3,2-2.4,3.8c0.4,1.1,1.5,1.9,2.8,1.9c3.3,0,6.6,0,9.9,0c0.7,0,0.7,0,0.7,0.7
		c0,0.9-0.1,1.8,0,2.7c0.1,1.2,0.2,2.5,0.6,3.6c1.6,5,6.1,8.2,11.3,8.2c33,0,65.9,0,98.9,0c0.6,0,1.3,0,1.9-0.1
		c5.8-0.9,10.1-5.9,10-11.8c0-3.7,0-7.5,0-11.2c0-0.2,0-0.4,0-0.6c-3,0-5.9,0-8.9,0C201.4,56.5,201.4,56.7,201.4,56.9z M129,59.4
		c1.4,0,2.6,1.2,2.6,2.6c0,1.4-1.2,2.6-2.6,2.6c-1.4,0-2.7-1.2-2.6-2.6C126.5,60.5,127.6,59.4,129,59.4z"/>
	
		<linearGradient id="SVGID_3_" gradientUnits="userSpaceOnUse" x1="198.5086" y1="70.193" x2="69.294" y2="154.3231" gradientTransform="matrix(1 0 0 -1 0 195.8898)">
		<stop  offset="1.000000e-04" style="stop-color:#751B7E"/>
		<stop  offset="0.9999" style="stop-color:#2A3461"/>
		<stop  offset="1" style="stop-color:#2B3461"/>
	</linearGradient>
	<path class="st5" d="M198.7,87.9c-10.8,0.1-21.5,0-32.3,0c-22.5,0-45,0-67.6,0c-1.4,0-2.6,0.5-3.4,1.6c-1.1,1.3-1.5,2.9-1.3,4.6
		c0.4,3.1,2.2,4.6,5.2,4.6c16.5,0,33,0,49.5,0c8.9,0,17.9,0,26.9,0c7.7,0,15.4,0,23.1,0c1.6,0,2.8-0.7,3.8-2c0.9-1.3,1-2.7,0.9-4.2
		C203.3,90.2,201.6,87.9,198.7,87.9z"/>
	
		<linearGradient id="SVGID_4_" gradientUnits="userSpaceOnUse" x1="234.5736" y1="125.585" x2="105.359" y2="209.715" gradientTransform="matrix(1 0 0 -1 0 195.8898)">
		<stop  offset="1.000000e-04" style="stop-color:#751B7E"/>
		<stop  offset="0.9999" style="stop-color:#2A3461"/>
		<stop  offset="1" style="stop-color:#2B3461"/>
	</linearGradient>
	<path class="st6" d="M224,47c-0.2-1.4-1.4-2.4-2.8-2.4c-3.3,0-6.7,0-10.1,0c-0.7,0-0.7,0-0.7-0.7c0-5.3,0-10.7,0-16
		c0-0.2,0-0.5,0-0.7c-3,0-5.9,0-8.9,0c0,0.3,0,0.5,0,0.7c0,5.3,0,10.7,0,16c0,0.7,0,0.7-0.7,0.7c-8.7,0-17.4,0-26.2,0
		c-0.6,0-0.9-0.1-1.3-0.6c-1.6-2.3-4.7-3.1-7.3-1.9c-2.6,1.2-4,4.2-3.2,6.9c0.7,2.4,2.3,3.9,4.8,4.3c2.4,0.4,4.4-0.4,5.8-2.4
		c0.3-0.5,0.6-0.6,1.2-0.6c15.4,0,30.9,0,46.3,0c0.4,0,0.9,0,1.3-0.2C223.4,49.8,224.2,48.4,224,47z M168.4,50.1
		c-1.4,0-2.6-1.1-2.6-2.6c0-1.4,1.2-2.6,2.6-2.6c1.4,0,2.5,1.1,2.5,2.6C171,48.9,169.9,50.1,168.4,50.1z"/>
	
		<linearGradient id="SVGID_5_" gradientUnits="userSpaceOnUse" x1="211.057" y1="89.466" x2="81.8424" y2="173.5961" gradientTransform="matrix(1 0 0 -1 0 195.8898)">
		<stop  offset="1.000000e-04" style="stop-color:#751B7E"/>
		<stop  offset="0.9999" style="stop-color:#2A3461"/>
		<stop  offset="1" style="stop-color:#2B3461"/>
	</linearGradient>
	<path class="st7" d="M76.8,35.8c3.3,0,6.7,0,10,0c0.9,0,0.8,0,0.8,0.8c0,5.3,0,10.6,0,16c0,0.2,0,0.5,0,0.7c3,0,6,0,8.9,0
		c0-5.8,0-11.6,0-17.4c0.3,0,0.5,0,0.7,0c8.6,0,17.2,0,25.8,0c0.5,0,0.7,0.1,1,0.5c1.6,2.4,4.6,3.2,7.2,2.1c2.6-1,4.1-3.8,3.6-6.6
		c-0.4-2.3-2.3-4.2-4.5-4.7c-2.4-0.5-4.8,0.4-6.2,2.4c-0.3,0.4-0.6,0.5-1.1,0.5c-15.3,0-30.6,0-45.9,0c-0.5,0-1.1,0.1-1.6,0.3
		c-1.2,0.5-1.8,1.9-1.5,3.2C74.4,34.8,75.4,35.8,76.8,35.8z M129,30.4c1.4,0,2.6,1.2,2.6,2.6c0,1.4-1.2,2.6-2.6,2.6
		c-1.4,0-2.6-1.2-2.6-2.6C126.4,31.5,127.5,30.4,129,30.4z"/>
</g>
</svg>
