<?xml version="1.0" encoding="utf-8"?>
<!-- Generator: Adobe Illustrator 24.3.0, SVG Export Plug-In . SVG Version: 6.00 Build 0)  -->
<svg version="1.1" id="Camada_1" xmlns="http://www.w3.org/2000/svg" xmlns:xlink="http://www.w3.org/1999/xlink" x="0px" y="0px"
	 viewBox="0 0 138 115" style="enable-background:new 0 0 138 115;" xml:space="preserve">
<style type="text/css">
	.st0{fill:none;}
	.st1{fill:url(#SVGID_1_);}
	.st2{fill:url(#SVGID_2_);}
	.st3{fill:url(#SVGID_3_);}
	.st4{fill:url(#SVGID_4_);}
	.st5{fill:url(#SVGID_5_);}
	.st6{fill:#17335C;}
</style>
<g>
	<path class="st0" d="M87.7,14.4c-1.3,0-2.3,1.1-2.3,2.3c0,1.3,1.1,2.4,2.4,2.4C89,19,90,18,90,16.7C90,15.4,89,14.4,87.7,14.4z"/>
	<path class="st0" d="M52.1,32.2c1.3,0,2.3-1.1,2.3-2.4c0-1.3-1.1-2.3-2.3-2.3c-1.3,0-2.3,1-2.4,2.3C49.7,31.1,50.8,32.2,52.1,32.2z
		"/>
	<path class="st0" d="M52.1,58.4c1.3,0,2.4-1.1,2.4-2.3c0-1.3-1.1-2.3-2.4-2.4c-1.3,0-2.3,1-2.4,2.3C49.7,57.3,50.8,58.4,52.1,58.4z
		"/>
	<path class="st0" d="M87.7,40.6c-1.3,0-2.4,1.1-2.4,2.4c0,1.3,1.1,2.3,2.3,2.3c1.3,0,2.3-1.1,2.3-2.4C90,41.6,89,40.6,87.7,40.6z"
		/>
	
		<linearGradient id="SVGID_1_" gradientUnits="userSpaceOnUse" x1="147.4695" y1="52.1596" x2="30.6034" y2="128.2498" gradientTransform="matrix(1 0 0 -1 0 115.8898)">
		<stop  offset="1.000000e-04" style="stop-color:#751B7E"/>
		<stop  offset="0.9999" style="stop-color:#2A3461"/>
		<stop  offset="1" style="stop-color:#2B3461"/>
	</linearGradient>
	<path class="st1" d="M22.7,21.3c0-3.5,0-7,0-10.5c0-0.4,0.1-0.8,0.2-1.1c0.5-1.1,1.4-1.6,2.6-1.6c17.9,0,35.7,0,53.6,0
		c11.9,0,23.7,0,35.6,0c1.7,0,2.8,1.1,2.8,2.7c0,0.9,0,1.8,0,2.6c0,0.7,0,0.7-0.7,0.7c-7.8,0-15.7,0-23.5,0c-0.6,0-1-0.2-1.3-0.7
		c-1.5-2.1-4.3-2.7-6.7-1.6c-2.3,1.1-3.5,3.8-2.8,6.3c0.7,2.2,2.1,3.5,4.3,3.9c2.2,0.3,4-0.5,5.2-2.3c0.2-0.4,0.5-0.5,0.9-0.5
		c13.9,0,27.8,0,41.7,0c0.2,0,0.5,0,0.7,0c1.7-0.1,2.8-1.5,2.5-3.1c-0.2-1.2-1.3-2-2.5-2c-3,0-6.1,0-9.2,0c-0.6,0-0.6,0-0.6-0.7
		c0-1,0-2,0-3c0-1.4-0.3-2.7-0.9-3.9c-2-4.2-5.4-6.5-10-6.5C85,0,55.2,0,25.5,0c-6,0-10.8,4.7-10.8,10.8c0,3.5,0,7.1,0,10.6
		c0,0.2,0,0.3,0,0.5c2.7,0,5.4,0,8.1,0C22.8,21.7,22.8,21.5,22.7,21.3z M87.8,19.1c-1.3,0-2.4-1.1-2.4-2.4c0-1.3,1.1-2.3,2.3-2.3
		c1.3,0,2.3,1,2.3,2.3C90,18,89,19,87.8,19.1z"/>
	
		<linearGradient id="SVGID_2_" gradientUnits="userSpaceOnUse" x1="126.5302" y1="19.9992" x2="9.6641" y2="96.0894" gradientTransform="matrix(1 0 0 -1 0 115.8898)">
		<stop  offset="1.000000e-04" style="stop-color:#751B7E"/>
		<stop  offset="0.9999" style="stop-color:#2A3461"/>
		<stop  offset="1" style="stop-color:#2B3461"/>
	</linearGradient>
	<path class="st2" d="M117.6,51.5c0,3.3,0,6.6,0,9.9c0,0.6-0.2,1.1-0.4,1.6c-0.5,1-1.5,1.3-2.5,1.3c-29.7,0-59.3,0-88.9,0
		c-0.2,0-0.4,0-0.7,0c-1-0.1-2-0.9-2.1-1.9c-0.1-1.2,0-2.4,0-3.7c0.2,0,0.4,0,0.6,0c7.8,0,15.5,0,23.3,0c0.4,0,0.7,0.1,0.9,0.5
		c1.4,2.1,4.1,2.9,6.5,1.9c2.3-0.9,3.6-3.4,3.2-5.9c-0.4-2.1-2-3.8-4.1-4.3c-2.2-0.5-4.4,0.4-5.6,2.2c-0.2,0.4-0.5,0.5-1,0.5
		c-13.8,0-27.5,0-41.2,0c-0.2,0-0.5,0-0.8,0c-1.7,0.2-2.7,1.8-2.2,3.4c0.4,1,1.3,1.7,2.6,1.7c3,0,6,0,8.9,0c0.7,0,0.7,0,0.7,0.6
		c0,0.8-0.1,1.6,0,2.5c0.1,1.1,0.2,2.3,0.5,3.3c1.5,4.5,5.5,7.4,10.2,7.4c29.8,0,59.6,0,89.5,0c0.6,0,1.1,0,1.7-0.1
		c5.2-0.8,9.1-5.3,9-10.6c0-3.4,0-6.8,0-10.2c0-0.2,0-0.4,0-0.6c-2.7,0-5.4,0-8,0C117.6,51.1,117.6,51.3,117.6,51.5z M52.1,53.7
		c1.3,0,2.3,1.1,2.4,2.4c0,1.2-1.1,2.3-2.4,2.3c-1.3,0-2.4-1.1-2.4-2.4C49.8,54.7,50.8,53.7,52.1,53.7z"/>
	
		<linearGradient id="SVGID_3_" gradientUnits="userSpaceOnUse" x1="114.9448" y1="2.2052" x2="-1.9214" y2="78.2954" gradientTransform="matrix(1 0 0 -1 0 115.8898)">
		<stop  offset="1.000000e-04" style="stop-color:#751B7E"/>
		<stop  offset="0.9999" style="stop-color:#2A3461"/>
		<stop  offset="1" style="stop-color:#2B3461"/>
	</linearGradient>
	<path class="st3" d="M115.1,79.5c-9.7,0.1-19.5,0-29.2,0c-20.4,0-40.7,0-61.1,0c-1.3,0-2.3,0.5-3.1,1.4c-1,1.2-1.3,2.6-1.1,4.1
		c0.4,2.8,2,4.1,4.7,4.1c14.9,0,29.8,0,44.7,0c8.1,0,16.2,0,24.4,0c6.9,0,13.9,0,20.9,0c1.5,0,2.6-0.6,3.4-1.8
		c0.8-1.2,0.9-2.5,0.8-3.8C119.3,81.6,117.7,79.5,115.1,79.5z"/>
	
		<linearGradient id="SVGID_4_" gradientUnits="userSpaceOnUse" x1="147.5633" y1="52.3036" x2="30.6972" y2="128.3938" gradientTransform="matrix(1 0 0 -1 0 115.8898)">
		<stop  offset="1.000000e-04" style="stop-color:#751B7E"/>
		<stop  offset="0.9999" style="stop-color:#2A3461"/>
		<stop  offset="1" style="stop-color:#2B3461"/>
	</linearGradient>
	<path class="st4" d="M138,42.5c-0.2-1.2-1.3-2.1-2.5-2.1c-3,0-6.1,0-9.2,0c-0.7,0-0.7,0-0.7-0.7c0-4.8,0-9.7,0-14.5
		c0-0.2,0-0.4,0-0.7c-2.7,0-5.4,0-8,0c0,0.2,0,0.5,0,0.6c0,4.8,0,9.7,0,14.5c0,0.7,0,0.7-0.7,0.7c-7.9,0-15.8,0-23.7,0
		c-0.5,0-0.8-0.1-1.1-0.6c-1.5-2.1-4.3-2.8-6.6-1.7c-2.3,1.1-3.6,3.8-2.9,6.3c0.7,2.2,2.1,3.6,4.3,3.9c2.2,0.4,4-0.4,5.3-2.2
		c0.3-0.4,0.6-0.5,1.1-0.5c13.9,0,27.9,0,41.8,0c0.4,0,0.8,0,1.2-0.2C137.5,45,138.2,43.8,138,42.5z M87.7,45.3
		c-1.3,0-2.3-1-2.3-2.3c0-1.3,1.1-2.4,2.4-2.4c1.3,0,2.3,1,2.3,2.3C90,44.3,89,45.3,87.7,45.3z"/>
	
		<linearGradient id="SVGID_5_" gradientUnits="userSpaceOnUse" x1="126.2939" y1="19.6363" x2="9.4278" y2="95.7265" gradientTransform="matrix(1 0 0 -1 0 115.8898)">
		<stop  offset="1.000000e-04" style="stop-color:#751B7E"/>
		<stop  offset="0.9999" style="stop-color:#2A3461"/>
		<stop  offset="1" style="stop-color:#2B3461"/>
	</linearGradient>
	<path class="st5" d="M4.9,32.4c3,0,6,0,9.1,0c0.8,0,0.7,0,0.7,0.7c0,4.8,0,9.6,0,14.5c0,0.2,0,0.4,0,0.6c2.7,0,5.4,0,8.1,0
		c0-5.2,0-10.5,0-15.8c0.2,0,0.4,0,0.7,0c7.8,0,15.6,0,23.3,0c0.4,0,0.7,0.1,0.9,0.5c1.5,2.1,4.1,2.9,6.5,1.9c2.4-0.9,3.7-3.4,3.2-6
		c-0.4-2.1-2-3.8-4.1-4.3c-2.2-0.5-4.4,0.4-5.6,2.2c-0.2,0.4-0.5,0.5-1,0.5c-13.9,0-27.7,0-41.5,0c-0.5,0-1,0.1-1.4,0.3
		c-1.1,0.5-1.6,1.7-1.4,2.9C2.7,31.5,3.6,32.4,4.9,32.4z M52.1,27.5c1.3,0,2.4,1.1,2.3,2.3c0,1.3-1.1,2.4-2.3,2.4
		c-1.3,0-2.4-1.1-2.4-2.4C49.7,28.5,50.8,27.5,52.1,27.5z"/>
</g>
<g>
	<path class="st0" d="M22.2,101.5c-0.4,1.5-0.9,3-1.4,4.7c1-0.1,2-0.2,3-0.3c-0.5-1.5-1-3-1.5-4.4C22.2,101.4,22.2,101.5,22.2,101.5
		z"/>
	<path class="st0" d="M64.3,98c-0.1,2.2-0.2,4.3-0.4,6.5c1-0.3,1.8-0.7,2.3-1.5c0.7-0.9,0.7-2,0.6-3C66.7,98.6,65.9,97.8,64.3,98z"
		/>
	<path class="st0" d="M118.8,99.5c-0.2-0.5-0.6-0.9-1.2-0.9c-0.6,0-1.1,0.2-1.4,0.7c-0.2,0.5-0.5,0.9-0.6,1.4
		c-0.4,1.7-0.5,3.4-0.3,5.2c0.1,0.9,0.4,1.8,0.7,2.7c0.2,0.6,0.7,1,1.4,1c0.7,0,1.1-0.5,1.3-1.1c0-0.1,0.1-0.2,0.1-0.3
		c0.5-1.4,0.5-2.9,0.5-4.5c0-0.7,0-1.4-0.1-2.1C119.2,100.9,119,100.2,118.8,99.5z"/>
	<path class="st0" d="M5.6,97.4c0,2,0,3.9,0,5.9c0,0,0.1,0.1,0.2,0.1c0.4-0.3,0.9-0.5,1.2-0.9c0.9-1.1,1-2.5,0.6-3.8
		C7.3,97.8,6.5,97.3,5.6,97.4z"/>
	<path class="st0" d="M77.2,101.4c-0.4,1.6-0.9,3.1-1.3,4.7c0.9-0.1,1.9-0.2,2.9-0.3c-0.5-1.5-1-3-1.5-4.5
		C77.3,101.4,77.3,101.4,77.2,101.4z"/>
	<path class="st6" d="M40.5,95.5c-0.4,0.1-0.5,0.3-0.5,0.7c0.1,1.7,0.2,3.4,0.3,5c0,0.8,0,1.6,0,2.5c-0.1-0.2-0.2-0.3-0.2-0.4
		c-1-2.5-2.3-4.8-3.8-7c-0.1-0.2-0.3-0.3-0.5-0.3c-1.5,0.1-2.9,0.4-4.2,1.1c-0.1,0.1-0.2,0.3-0.2,0.4c0,1.4,0,2.7,0,4.1
		c0.1,2.7,0.3,5.3,0.4,7.9c0.1,1.1,0.2,2.2,0.3,3.4c1.2-0.1,2.4-0.2,3.6-0.4c0-3.2,0-6.4,0-9.5c0,0,0.1,0,0.1,0
		c0.3,0.6,0.7,1.1,1,1.7c1,2.2,2,4.5,3.1,6.7c0.1,0.2,0.2,0.3,0.5,0.3c1.1-0.1,2.2-0.2,3.2-0.4c0.4,0,0.5-0.2,0.5-0.5
		c0.1-1.9,0.2-3.8,0.3-5.7c0-2.9,0.1-5.8,0.1-8.7c0-0.5,0-1-0.1-1.5C43,95,41.8,95.3,40.5,95.5z"/>
	<path class="st6" d="M11.1,106.4c-0.4-0.7-1-1.4-1.6-2.1c0.9-0.6,1.6-1.3,2.2-2.3c1.2-2.1,0.9-5.7-2.6-6.8
		c-1.2-0.4-2.4-0.5-3.6-0.4c-1.7,0.1-3.2,0.7-4.5,1.7c-0.1,0.1-0.2,0.3-0.2,0.4c0.2,1.5,0.4,2.9,0.4,4.4c0.2,3.2,0.2,6.3,0.3,9.5
		c0,0.4,0,0.7,0,1.1c1.3,0.1,2.5,0.2,3.8,0.2c0-0.6,0.1-1,0.1-1.5c0.1-1.4,0.1-2.9,0.2-4.3c0-0.2,0.2-0.4,0.3-0.5
		c0.1,0,0.4,0.1,0.4,0.2c0.4,0.5,0.7,1.1,1,1.6c0.9,1.8,1.7,3.6,2.6,5.4c1.3-0.4,2.7-1,3.7-2c0.1-0.1,0.1-0.3,0-0.5
		C12.9,109.4,12,107.9,11.1,106.4z M7,102.5c-0.3,0.4-0.8,0.6-1.2,0.9c0,0-0.1-0.1-0.2-0.1c0-2,0-3.9,0-5.9c0.9,0,1.6,0.4,1.9,1.3
		C8,100,7.9,101.4,7,102.5z"/>
	<path class="st6" d="M121.4,96.4c-2.5-1.5-6.4-0.7-8.4,1.8c-1.6,2-2.2,4.2-2.2,6.7c0,1.3,0.1,2.6,0.6,3.8c0.7,2,1.9,3.4,4.1,3.8
		c2.6,0.4,4.8-0.5,6.3-2.7c2.1-3,2.7-6.5,1.9-10.1C123.4,98.3,122.6,97.1,121.4,96.4z M118.9,108.2c0,0.1-0.1,0.2-0.1,0.3
		c-0.2,0.6-0.6,1-1.3,1.1c-0.7,0-1.2-0.4-1.4-1c-0.3-0.9-0.6-1.8-0.7-2.7c-0.2-1.7-0.1-3.4,0.3-5.2c0.1-0.5,0.3-1,0.6-1.4
		c0.3-0.5,0.8-0.8,1.4-0.7c0.6,0,1,0.4,1.2,0.9c0.2,0.7,0.4,1.4,0.5,2c0.1,0.7,0.1,1.5,0.1,2.1C119.3,105.3,119.4,106.8,118.9,108.2
		z"/>
	<path class="st6" d="M82.6,103.4c-0.8-2.3-1.7-4.4-3-6.4c-0.1-0.2-0.4-0.4-0.6-0.4c-1-0.1-2.1-0.2-3.1-0.4c-0.3,0-0.4,0.1-0.5,0.4
		c-0.4,1.4-0.8,2.9-1.3,4.3c-1.1,3.3-2.4,6.6-4.1,9.6c-0.2,0.3-0.1,0.5,0.1,0.7c0.8,0.8,1.8,1.2,2.9,1.5c0.4,0.1,0.5,0,0.6-0.3
		c0.4-0.9,0.8-1.9,1.2-2.9c0-0.2,0.3-0.4,0.4-0.4c1.3-0.1,2.6-0.2,3.8-0.2c0.4,0,0.5,0.1,0.6,0.5c0.3,1.7,0.6,3.4,0.9,5.2
		c1.1,0,3.3-0.6,4.2-1.2c0.1,0,0.2-0.2,0.2-0.4c-0.1-0.7-0.2-1.4-0.4-2C84.1,108.4,83.4,105.9,82.6,103.4z M75.9,106.2
		c0.4-1.6,0.9-3.2,1.3-4.7c0,0,0.1,0,0.1,0c0.5,1.5,1,2.9,1.5,4.5C77.8,105.9,76.8,106,75.9,106.2z"/>
	<path class="st6" d="M29.1,109.3c-0.5-2-1.1-4.1-1.8-6c-0.7-2.2-1.7-4.3-2.9-6.2c-0.1-0.2-0.4-0.4-0.6-0.4c-1-0.1-2-0.2-3-0.4
		c-0.4,0-0.5,0.1-0.6,0.5c-0.4,1.4-0.8,2.9-1.3,4.3c-1.1,3.3-2.4,6.5-4,9.5c-0.2,0.3-0.1,0.5,0.1,0.7c0.9,0.8,1.9,1.3,3.1,1.6
		c0.1,0,0.3-0.1,0.4-0.2c0.4-1,0.9-2,1.2-2.9c0.1-0.3,0.2-0.5,0.6-0.5c1.1,0,2.2-0.1,3.3-0.2c0.3,0,0.7,0,1.1,0
		c0.2,1,0.4,1.9,0.6,2.8c0.1,0.9,0.2,1.9,0.4,2.9c0.1,0,0.2,0,0.4,0c1.3-0.2,2.5-0.5,3.6-1.1c0.3-0.2,0.4-0.4,0.3-0.7
		C29.6,111.7,29.5,110.5,29.1,109.3z M20.8,106.2c0.5-1.6,0.9-3.2,1.4-4.7c0,0,0.1,0,0.1,0c0.5,1.4,1,2.9,1.5,4.4
		C22.7,106,21.8,106.1,20.8,106.2z"/>
	<path class="st6" d="M94.9,95.4c-1.8-0.7-3.6-0.7-5.3,0c-0.9,0.4-1.7,0.9-2.2,1.8c-1.3,1.9-1.1,4.8,0.6,6.5c0.9,0.9,2,1.7,2.9,2.6
		c0.5,0.4,0.9,0.8,1.3,1.3c0.5,0.7,0.5,1.6,0.1,2.2c-0.4,0.5-1.1,0.7-1.9,0.5c-0.8-0.2-1.2-0.8-1.5-1.5c-0.2-0.7-0.3-1.4-0.5-2.2
		c-1,0-2,0.3-2.9,0.8c-0.3,0.1-0.4,0.3-0.4,0.6c0.1,0.9,0.4,1.7,0.9,2.4c1.5,2.2,4.1,3.2,6.8,2.5c3.4-0.8,5.1-4,3.8-7.4
		c-0.4-1.2-1.4-2-2.4-2.8c-0.8-0.7-1.6-1.4-2.4-2c-0.5-0.5-0.7-1.1-0.7-1.8c0-0.7,0.4-1.1,1.1-1.1c0.7,0,1.3,0.4,1.6,1.2
		c0.2,0.5,0.3,0.9,0.4,1.4c1.1-0.1,2.2-0.2,3.3-0.8c0.1-0.1,0.3-0.3,0.2-0.5C97.3,97.4,96.5,96,94.9,95.4z"/>
	<path class="st6" d="M137.1,98.9c-0.4-1.6-1.3-2.9-2.9-3.6c-1.1-0.5-2.3-0.5-3.6-0.4c-2,0.3-3.6,1.2-4.4,3.2
		c-0.8,2.1-0.3,4,1.1,5.6c0.7,0.8,1.6,1.4,2.4,2.1c0.7,0.7,1.6,1.2,2,2.2c0.4,1.1-0.1,2.4-1.5,2.3c-1,0-1.8-0.7-2.1-1.9
		c-0.1-0.6-0.2-1.2-0.3-1.8c-0.7,0-2.5,0.4-3.1,0.7c-0.1,0.1-0.2,0.3-0.2,0.5c0,0.8,0.3,1.6,0.7,2.3c1.4,2.3,4.1,3.3,6.9,2.7
		c2.5-0.6,4.2-2.5,4.3-4.9c0.1-1.9-0.7-3.4-2.1-4.7c-0.9-0.8-2-1.6-2.9-2.4c-0.6-0.5-0.9-1.2-0.9-2c0-0.7,0.5-1.2,1.2-1.1
		c0.7,0,1.3,0.5,1.5,1.2c0.2,0.5,0.3,0.9,0.4,1.4c1.2-0.1,2.3-0.2,3.3-0.8C137.1,99.4,137.2,99.1,137.1,98.9z"/>
	<path class="st6" d="M107,95.2c-1.1-0.3-2.1-0.4-3.2-0.2c-1.9,0.2-3.5,1.1-4.3,2.9c-0.8,1.9-0.6,3.8,0.7,5.4
		c0.7,0.8,1.6,1.5,2.3,2.2c0.7,0.7,1.5,1.3,2.2,2c0.5,0.6,0.5,1.6,0.1,2.1c-0.4,0.6-1.1,0.7-1.8,0.6c-0.7-0.1-1.2-0.7-1.5-1.3
		c-0.3-0.8-0.4-1.6-0.7-2.4c-0.6-0.1-2.6,0.4-3.1,0.7c-0.1,0.1-0.2,0.2-0.2,0.4c0,0.9,0.2,1.6,0.7,2.3c1.6,2.5,4.8,3.6,7.6,2.5
		c2.6-0.9,4-3.4,3.4-6.3c-0.3-1.4-1.2-2.5-2.3-3.4c-0.8-0.7-1.7-1.3-2.5-2c-0.4-0.4-0.7-0.9-0.9-1.4c-0.2-0.5-0.2-1.2,0.4-1.6
		c0.5-0.4,1-0.3,1.5,0c0.2,0.1,0.4,0.3,0.6,0.6c0.2,0.5,0.5,1.1,0.7,1.8c1.1-0.1,2.2-0.2,3.2-0.8c0.1,0,0.3-0.2,0.2-0.4
		C109.8,97.2,108.8,95.8,107,95.2z"/>
	<path class="st6" d="M71.3,99.1c-0.3-1.8-1.5-2.8-3.1-3.2c-2.9-0.7-5.6-0.2-8.3,0.9c-0.1,0.1-0.2,0.2-0.2,0.4c0,0.5-0.1,1-0.1,1.6
		c0.1,3.2,0.1,6.4,0.3,9.6c0.1,1.6,0.3,3.1,0.4,4.7c0,0.1,0.2,0.4,0.2,0.4c1.2,0.1,2.3,0.2,3.6,0.3c0-0.5,0-0.7,0-1
		c0-1.6-0.1-3.2-0.2-4.8c0-0.4,0.1-0.5,0.5-0.7c2.2-0.7,4.2-1.8,5.6-3.6C71.1,102.3,71.6,100.7,71.3,99.1z M66.2,103.1
		c-0.5,0.8-1.3,1.2-2.3,1.5c0.1-2.2,0.2-4.3,0.4-6.5c1.6-0.2,2.5,0.5,2.5,2C66.9,101.1,66.9,102.2,66.2,103.1z"/>
	<path class="st6" d="M47.2,97.3c-0.2,0.1-0.3,0.4-0.3,0.5c0.2,2.7,0.5,5.4,0.7,8.1c0.1,2.1,0.1,4.3,0.1,6.5c0,0.1,0,0.2,0,0.5
		c1.1-0.1,2.2-0.3,3.4-0.5c0.1,0,0.2-0.2,0.2-0.3c0.1-0.7,0.2-1.4,0.2-2.1c0.1-2.5,0.2-4.9,0.2-7.3c0-1.9,0-3.8,0-5.8
		C50.2,96.6,48.7,96.5,47.2,97.3z"/>
</g>
</svg>
