<svg width="253" height="253" viewBox="0 0 253 253" fill="none" xmlns="http://www.w3.org/2000/svg">
<rect width="253" height="253" fill="#F3F3F3"/>
<g opacity="0.4">
<path d="M78.3711 180.523C78.3711 179.859 78.1367 179.352 77.668 179C77.1992 178.641 76.3555 178.266 75.1367 177.875C73.918 177.477 72.9531 177.086 72.2422 176.703C70.3047 175.656 69.3359 174.246 69.3359 172.473C69.3359 171.551 69.5938 170.73 70.1094 170.012C70.6328 169.285 71.3789 168.719 72.3477 168.312C73.3242 167.906 74.418 167.703 75.6289 167.703C76.8477 167.703 77.9336 167.926 78.8867 168.371C79.8398 168.809 80.5781 169.43 81.1016 170.234C81.6328 171.039 81.8984 171.953 81.8984 172.977H78.3828C78.3828 172.195 78.1367 171.59 77.6445 171.16C77.1523 170.723 76.4609 170.504 75.5703 170.504C74.7109 170.504 74.043 170.688 73.5664 171.055C73.0898 171.414 72.8516 171.891 72.8516 172.484C72.8516 173.039 73.1289 173.504 73.6836 173.879C74.2461 174.254 75.0703 174.605 76.1562 174.934C78.1562 175.535 79.6133 176.281 80.5273 177.172C81.4414 178.062 81.8984 179.172 81.8984 180.5C81.8984 181.977 81.3398 183.137 80.2227 183.98C79.1055 184.816 77.6016 185.234 75.7109 185.234C74.3984 185.234 73.2031 184.996 72.125 184.52C71.0469 184.035 70.2227 183.375 69.6523 182.539C69.0898 181.703 68.8086 180.734 68.8086 179.633H72.3359C72.3359 181.516 73.4609 182.457 75.7109 182.457C76.5469 182.457 77.1992 182.289 77.668 181.953C78.1367 181.609 78.3711 181.133 78.3711 180.523Z" fill="black"/>
<path d="M94.5547 177.605H87.8047V182.176H95.7266V185H84.2891V167.938H95.7031V170.785H87.8047V174.852H94.5547V177.605Z" fill="black"/>
<path d="M102.383 167.938L106.766 180.312L111.125 167.938H115.742V185H112.215V180.336L112.566 172.285L107.961 185H105.547L100.953 172.297L101.305 180.336V185H97.7891V167.938H102.383Z" fill="black"/>
<path d="M135.055 178.027H128.305V185H124.789V167.938H135.898V170.785H128.305V175.191H135.055V178.027Z" fill="black"/>
<path d="M151.953 176.855C151.953 178.535 151.656 180.008 151.062 181.273C150.469 182.539 149.617 183.516 148.508 184.203C147.406 184.891 146.141 185.234 144.711 185.234C143.297 185.234 142.035 184.895 140.926 184.215C139.816 183.535 138.957 182.566 138.348 181.309C137.738 180.043 137.43 178.59 137.422 176.949V176.105C137.422 174.426 137.723 172.949 138.324 171.676C138.934 170.395 139.789 169.414 140.891 168.734C142 168.047 143.266 167.703 144.688 167.703C146.109 167.703 147.371 168.047 148.473 168.734C149.582 169.414 150.438 170.395 151.039 171.676C151.648 172.949 151.953 174.422 151.953 176.094V176.855ZM148.391 176.082C148.391 174.293 148.07 172.934 147.43 172.004C146.789 171.074 145.875 170.609 144.688 170.609C143.508 170.609 142.598 171.07 141.957 171.992C141.316 172.906 140.992 174.25 140.984 176.023V176.855C140.984 178.598 141.305 179.949 141.945 180.91C142.586 181.871 143.508 182.352 144.711 182.352C145.891 182.352 146.797 181.891 147.43 180.969C148.062 180.039 148.383 178.688 148.391 176.914V176.082Z" fill="black"/>
<path d="M166.344 170.785H161.117V185H157.602V170.785H152.445V167.938H166.344V170.785Z" fill="black"/>
<path d="M182.047 176.855C182.047 178.535 181.75 180.008 181.156 181.273C180.562 182.539 179.711 183.516 178.602 184.203C177.5 184.891 176.234 185.234 174.805 185.234C173.391 185.234 172.129 184.895 171.02 184.215C169.91 183.535 169.051 182.566 168.441 181.309C167.832 180.043 167.523 178.59 167.516 176.949V176.105C167.516 174.426 167.816 172.949 168.418 171.676C169.027 170.395 169.883 169.414 170.984 168.734C172.094 168.047 173.359 167.703 174.781 167.703C176.203 167.703 177.465 168.047 178.566 168.734C179.676 169.414 180.531 170.395 181.133 171.676C181.742 172.949 182.047 174.422 182.047 176.094V176.855ZM178.484 176.082C178.484 174.293 178.164 172.934 177.523 172.004C176.883 171.074 175.969 170.609 174.781 170.609C173.602 170.609 172.691 171.07 172.051 171.992C171.41 172.906 171.086 174.25 171.078 176.023V176.855C171.078 178.598 171.398 179.949 172.039 180.91C172.68 181.871 173.602 182.352 174.805 182.352C175.984 182.352 176.891 181.891 177.523 180.969C178.156 180.039 178.477 178.688 178.484 176.914V176.082Z" fill="black"/>
<path fill-rule="evenodd" clip-rule="evenodd" d="M168.062 79.8125H120.562C120.562 76.5469 117.891 73.875 114.625 73.875H90.875C87.6094 73.875 84.9375 76.5469 84.9375 79.8125C81.6719 79.8125 79 82.4844 79 85.75V139.188C79 142.453 81.6719 145.125 84.9375 145.125H168.062C171.328 145.125 174 142.453 174 139.188V85.75C174 82.4844 171.328 79.8125 168.062 79.8125ZM114.625 91.6875H90.875V85.75H114.625V91.6875ZM141.344 133.25C129.825 133.25 120.562 123.988 120.562 112.469C120.562 100.95 129.825 91.6875 141.344 91.6875C152.863 91.6875 162.125 100.95 162.125 112.469C162.125 123.988 152.863 133.25 141.344 133.25ZM156.188 112.469C156.188 120.662 149.478 127.312 141.344 127.312C133.209 127.312 126.5 120.603 126.5 112.469C126.5 104.334 133.209 97.625 141.344 97.625C149.478 97.625 156.188 104.334 156.188 112.469Z" fill="black"/>
</g>
</svg>
