<svg width="16" height="16" viewBox="0 0 16 16" fill="none" xmlns="http://www.w3.org/2000/svg">
<path d="M13.63 6.93934C13.6894 6.59948 13.7221 6.24988 13.7221 5.89247C13.7221 2.6435 11.1552 0 8.0001 0C4.84487 0 2.27784 2.6435 2.27784 5.89247C2.27784 6.24988 2.31071 6.59921 2.37019 6.93934C1.87335 7.25663 1.54297 7.81141 1.54297 8.44502V14.2135C1.54297 15.2002 2.34289 16 3.32931 16H12.6708C13.6569 16 14.4567 15.2002 14.4567 14.2135H14.4572V8.44502C14.4572 7.81155 14.1271 7.25663 13.63 6.93934ZM8.78832 11.9762V13.2298C8.78832 13.6654 8.43537 14.0184 7.99983 14.0184C7.56428 14.0184 7.21133 13.6654 7.21133 13.2298V11.9756C6.70558 11.6969 6.36252 11.1591 6.36252 10.5407C6.36252 9.63647 7.09558 8.90327 8.0001 8.90327C8.90462 8.90327 9.63782 9.63647 9.63782 10.5407C9.63782 11.1594 9.29448 11.6976 8.78832 11.9762ZM11.5449 6.6584H4.45515C4.40654 6.41117 4.38063 6.15475 4.38063 5.89247C4.38063 3.80277 6.00428 2.10279 8.0001 2.10279C9.99579 2.10279 11.6193 3.80263 11.6193 5.89247C11.6193 6.15475 11.5937 6.41117 11.5449 6.6584Z" fill="#6B6B6B"/>
</svg>
