<svg width="13" height="13" viewBox="0 0 13 13" fill="none" xmlns="http://www.w3.org/2000/svg">
<g clip-path="url(#clip0_114_2944)">
<path d="M8.20259 11.2536H1.52391V1.74663H8.20286C8.35091 1.74663 8.47106 1.62648 8.47106 1.47844V0.490794C8.47106 0.342748 8.35091 0.222595 8.20286 0.222595H0.268199C0.120153 0.222595 0 0.342748 0 0.490794V12.5092C0 12.6572 0.120153 12.7774 0.268199 12.7774H8.20259C8.35077 12.7774 8.47079 12.6572 8.47079 12.5092V11.5218C8.47079 11.3735 8.35091 11.2536 8.20259 11.2536Z" fill="#17335C"/>
<path d="M12.9215 6.31043L9.31131 2.70047C9.21074 2.59976 9.03265 2.5999 8.93208 2.70047L8.07558 3.5571C7.97085 3.66183 7.97085 3.8316 8.07558 3.93633L9.70623 5.56725H2.64711C2.49906 5.56725 2.37891 5.6874 2.37891 5.83545V7.16464C2.37891 7.31269 2.49906 7.43284 2.64711 7.43284H9.70664L8.07599 9.06376C7.97126 9.16849 7.97126 9.33826 8.07599 9.44299L8.93248 10.2998C8.98277 10.35 9.05116 10.3783 9.1221 10.3783C9.1933 10.3783 9.26143 10.35 9.31171 10.2998L12.9219 6.6898C12.9722 6.63951 13.0005 6.57112 13.0005 6.50018C13.0004 6.42884 12.9718 6.36072 12.9215 6.31043Z" fill="#17335C"/>
</g>
<defs>
<clipPath id="clip0_114_2944">
<rect width="13" height="13" fill="white"/>
</clipPath>
</defs>
</svg>
