<svg width="16" height="16" viewBox="0 0 16 16" fill="none" xmlns="http://www.w3.org/2000/svg">
<g clip-path="url(#clip0_114_2923)">
<path d="M7.88599 7.74277C8.94482 7.74277 9.86169 7.3622 10.6108 6.61134C11.36 5.8606 11.7397 4.94202 11.7397 3.88081C11.7397 2.81996 11.36 1.90126 10.6107 1.15028C9.86145 0.399661 8.9447 0.0190916 7.88599 0.0190916C6.82703 0.0190916 5.9104 0.399661 5.16125 1.1504C4.41211 1.90114 4.03223 2.81984 4.03223 3.88081C4.03223 4.94202 4.41211 5.86072 5.16138 6.61146C5.91064 7.36208 6.82739 7.74277 7.88599 7.74277Z" fill="#6B6B6B"/>
<path d="M14.629 12.3485C14.6074 12.0361 14.5637 11.6953 14.4994 11.3354C14.4344 10.9728 14.3508 10.63 14.2507 10.3167C14.1473 9.99294 14.0067 9.67317 13.8329 9.36673C13.6525 9.04867 13.4406 8.77172 13.2028 8.54382C12.9541 8.3054 12.6497 8.11371 12.2976 7.97388C11.9468 7.83479 11.558 7.76433 11.1421 7.76433C10.9788 7.76433 10.8208 7.83149 10.5157 8.03052C10.328 8.15322 10.1084 8.29512 9.86328 8.45207C9.65369 8.5859 9.36975 8.71129 9.01904 8.82481C8.67688 8.93576 8.32947 8.99204 7.98657 8.99204C7.64368 8.99204 7.29639 8.93576 6.95386 8.82481C6.60352 8.71141 6.31958 8.58602 6.11023 8.45219C5.86743 8.29671 5.64771 8.15481 5.45715 8.0304C5.15247 7.83137 4.99438 7.76421 4.83105 7.76421C4.41504 7.76421 4.02637 7.83479 3.67566 7.974C3.32385 8.11358 3.01929 8.30527 2.77039 8.54394C2.53271 8.77196 2.32068 9.0488 2.1405 9.36673C1.9668 9.67317 1.82617 9.99282 1.72266 10.3169C1.62268 10.6302 1.53906 10.9728 1.47412 11.3354C1.40979 11.6948 1.36609 12.0357 1.34448 12.3489C1.32324 12.6557 1.3125 12.9741 1.3125 13.2957C1.3125 14.1327 1.578 14.8103 2.10156 15.31C2.61865 15.8031 3.30286 16.0533 4.13489 16.0533H11.839C12.671 16.0533 13.355 15.8033 13.8722 15.31C14.3959 14.8107 14.6614 14.133 14.6614 13.2956C14.6613 12.9725 14.6504 12.6539 14.629 12.3485Z" fill="#6B6B6B"/>
</g>
<defs>
<clipPath id="clip0_114_2923">
<rect width="16" height="16" fill="white"/>
</clipPath>
</defs>
</svg>
