<svg width="17" height="16" viewBox="0 0 17 16" fill="none" xmlns="http://www.w3.org/2000/svg">
<path d="M15.9817 9.4624C15.7632 9.07442 15.3505 8.83343 14.9047 8.83343C14.6941 8.83343 14.485 8.88848 14.3001 8.99259L10.7015 11.0192C10.6545 11.0457 10.6206 11.0904 10.6077 11.1427C10.545 11.399 10.3972 11.7567 10.0501 12.0058C9.66589 12.2815 9.14614 12.3389 8.51283 12.1765C8.50902 12.1756 8.50524 12.1745 8.50191 12.1734L6.42596 11.5289C6.30043 11.4899 6.23004 11.356 6.269 11.2306C6.30021 11.1302 6.39167 11.0627 6.49661 11.0627C6.52045 11.0627 6.54433 11.0664 6.56743 11.0735L8.63259 11.7148C8.63589 11.7158 8.63927 11.7167 8.64265 11.7176C9.12967 11.8405 9.51002 11.8063 9.77204 11.6184C10.1031 11.3809 10.1614 10.9633 10.1683 10.902C10.1685 10.9001 10.1687 10.8981 10.1689 10.8961C10.169 10.8951 10.169 10.8946 10.1691 10.8944C10.1691 10.8938 10.1692 10.8931 10.1692 10.8925C10.1692 10.8921 10.1692 10.8917 10.1693 10.8913C10.2087 10.3764 9.87645 9.90101 9.37868 9.76044L9.36954 9.75767C9.35437 9.75273 7.82664 9.25374 6.85325 8.97599C6.7451 8.94517 6.44711 8.87343 6.01613 8.87343C5.41338 8.87343 4.51419 9.01626 3.65172 9.69807L0.0724019 12.5934C-0.00947623 12.6596 -0.0239967 12.7788 0.0395466 12.8628L1.97758 15.4227C2.009 15.4641 2.05564 15.4913 2.10718 15.4983C2.1158 15.4995 2.12443 15.5 2.1331 15.5C2.17588 15.5 2.21779 15.4859 2.25208 15.4595L4.74839 13.5374C4.80447 13.4942 4.87968 13.478 4.94859 13.4942L8.98052 14.447C9.27951 14.5177 9.60265 14.4721 9.87008 14.3213L15.5118 11.144C16.105 10.8099 16.3157 10.0556 15.9817 9.4624Z" fill="#6B6B6B"/>
<path d="M13.7396 0.5H6.37095C6.1316 0.5 5.9375 0.694054 5.9375 0.933447V2.9058C5.9375 3.1452 6.1316 3.33925 6.37095 3.33925H6.53284V7.52735C6.53284 7.76674 6.72689 7.96079 6.96629 7.96079H13.144C13.3834 7.96079 13.5775 7.76674 13.5775 7.52735V3.33921H13.7395C13.9789 3.33921 14.173 3.14515 14.173 2.90576V0.933447C14.173 0.694054 13.9789 0.5 13.7396 0.5ZM10.967 4.36904H9.14341C8.95221 4.36904 8.79665 4.21347 8.79665 4.02228C8.79665 3.83108 8.95221 3.67552 9.14341 3.67552H10.967C11.1582 3.67552 11.3138 3.83108 11.3138 4.02228C11.3138 4.21347 11.1582 4.36904 10.967 4.36904ZM13.3061 2.47231H13.1441H6.96629H6.80439V1.36689H13.3061V2.47231Z" fill="#6B6B6B"/>
</svg>
