<svg width="16" height="16" viewBox="0 0 16 16" fill="none" xmlns="http://www.w3.org/2000/svg">
<path d="M6.79102 6.28211C6.79102 6.68788 7.00594 6.86072 7.37067 7.02027V5.506C6.9842 5.62847 6.79102 5.88722 6.79102 6.28211Z" fill="#6B6B6B"/>
<path d="M8.65723 8.98189V10.5416C9.16168 10.4508 9.41403 10.2006 9.41403 9.79083C9.41403 9.35187 9.10185 9.16672 8.65723 8.98189Z" fill="#6B6B6B"/>
<path d="M8 0C3.5817 0 0 3.58174 0 8C0 12.4183 3.5817 16 8 16C12.4183 16 16 12.4183 16 8C16 3.5817 12.4183 0 8 0ZM8.65753 11.8857V12.8353C8.65753 12.991 8.5313 13.1173 8.37558 13.1173H7.65252C7.4968 13.1173 7.37057 12.991 7.37057 12.8353V11.8598C6.56574 11.7517 5.79743 11.4678 5.16052 11.0679C5.0368 10.9902 4.99276 10.8307 5.05941 10.7008L5.4464 9.94581C5.48313 9.87416 5.54877 9.82163 5.62671 9.80146C5.70466 9.78129 5.78748 9.79551 5.8544 9.84028C6.28616 10.1293 6.95767 10.3838 7.37054 10.4806V8.57628C6.14313 8.23148 5.25784 7.78372 5.25784 6.51962C5.25784 5.33718 5.98654 4.42428 7.37054 4.1792V3.24268C7.37054 3.08696 7.49677 2.96073 7.65249 2.96073H8.37558C8.5313 2.96073 8.65753 3.08696 8.65753 3.24268V4.15398C9.26233 4.23489 9.85941 4.45016 10.3739 4.74139C10.5771 4.85645 10.6507 5.11329 10.539 5.3184L10.2291 5.88727C10.1921 5.95516 10.1289 6.00487 10.0542 6.0248C9.97955 6.04473 9.89997 6.03308 9.83405 5.9927C9.54264 5.81419 9.06539 5.60125 8.6575 5.50588V7.4049C10.0139 7.78334 11.0013 8.2119 11.0013 9.63965C11.0013 11.0355 10.0697 11.74 8.65753 11.8857Z" fill="#6B6B6B"/>
</svg>
