<svg width="37" height="36" viewBox="0 0 37 36" fill="none" xmlns="http://www.w3.org/2000/svg">
<rect width="37" height="36" rx="2" fill="#007BFF"/>
<path fill-rule="evenodd" clip-rule="evenodd" d="M23.3844 27.7791C23.7064 28.0071 24.1214 28.0641 24.4914 27.9241C24.8614 27.7831 25.1334 27.4671 25.2154 27.0841C26.0844 23.0001 28.1924 12.6631 28.9834 8.94815C29.0434 8.66815 28.9434 8.37715 28.7234 8.19015C28.5034 8.00315 28.1984 7.94915 27.9264 8.05015C23.7334 9.60215 10.8204 14.4471 5.5424 16.4001C5.2074 16.5241 4.9894 16.8461 5.0004 17.1991C5.0124 17.5531 5.2504 17.8601 5.5934 17.9631C7.9604 18.6711 11.0674 19.6561 11.0674 19.6561C11.0674 19.6561 12.5194 24.0411 13.2764 26.2711C13.3714 26.5511 13.5904 26.7711 13.8794 26.8471C14.1674 26.9221 14.4754 26.8431 14.6904 26.6401C15.9064 25.4921 17.7864 23.7171 17.7864 23.7171C17.7864 23.7171 21.3584 26.3361 23.3844 27.7791V27.7791ZM12.3744 19.1021L14.0534 24.6401L14.4264 21.1331C14.4264 21.1331 20.9134 15.2821 24.6114 11.9471C24.7194 11.8491 24.7344 11.6851 24.6444 11.5701C24.5554 11.4551 24.3914 11.4281 24.2684 11.5061C19.9824 14.2431 12.3744 19.1021 12.3744 19.1021Z" fill="white"/>
</svg>
