<svg width="20" height="12" viewBox="0 0 20 12" fill="none" xmlns="http://www.w3.org/2000/svg">
<g clip-path="url(#clip0_8_1646)">
<path d="M18.9232 1.61299L17.3173 0.27599C17.1036 0.0998106 16.815 0.000976562 16.5143 0.000976562C16.2136 0.000976562 15.925 0.0998106 15.7114 0.27599L7.96299 6.73599L4.49057 3.83599C4.38632 3.74686 4.26123 3.67647 4.12302 3.62917C3.98482 3.58187 3.83643 3.55866 3.68702 3.56099C3.53762 3.55866 3.38923 3.58187 3.25102 3.62917C3.11281 3.67647 2.98772 3.74686 2.88348 3.83599L1.27759 5.17199C1.06598 5.34988 0.947266 5.59013 0.947266 5.84049C0.947266 6.09086 1.06598 6.3311 1.27759 6.50899L5.55235 10.068L7.15824 11.405C7.37191 11.5812 7.66047 11.68 7.96119 11.68C8.26191 11.68 8.55047 11.5812 8.76413 11.405L10.37 10.068L18.9208 2.94899C19.1324 2.7711 19.2511 2.53086 19.2511 2.28049C19.2511 2.03012 19.1324 1.78988 18.9208 1.61199L18.9232 1.61299Z" fill="#007BFF"/>
</g>
<defs>
<clipPath id="clip0_8_1646">
<rect width="18.3062" height="11.682" fill="white" transform="translate(0.947266)"/>
</clipPath>
</defs>
</svg>
