<svg width="35" height="36" viewBox="0 0 35 36" fill="none" xmlns="http://www.w3.org/2000/svg">
<rect width="35" height="36" rx="2" fill="#007BFF"/>
<path d="M17.4932 9.50677C17.4932 9.50677 10.1176 9.50678 8.26647 10.0015C7.2753 10.2864 6.45914 11.1259 6.18219 12.1604C5.70118 14.0644 5.70117 18.0076 5.70117 18.0076C5.70117 18.0076 5.70118 21.9657 6.18219 23.8397C6.45914 24.8742 7.26072 25.6987 8.26647 25.9836C10.1322 26.4933 17.4932 26.4933 17.4932 26.4933C17.4932 26.4933 24.8833 26.4933 26.7344 25.9986C27.7402 25.7137 28.5418 24.9042 28.8041 23.8547C29.2997 21.9657 29.2997 18.0226 29.2997 18.0226C29.2997 18.0226 29.3143 14.0644 28.8041 12.1604C28.5418 11.1259 27.7402 10.3014 26.7344 10.0315C24.8833 9.5068 17.4932 9.50677 17.4932 9.50677ZM15.1464 14.3644L21.283 18.0076L15.1464 21.6357V14.3644Z" fill="#FAFAFA"/>
</svg>
